<?xml version="1.0" encoding="utf-8"?>
<!-- Generator: Adobe Illustrator 21.1.0, SVG Export Plug-In . SVG Version: 6.00 Build 0)  -->
<svg version="1.1" id="Logo" xmlns="http://www.w3.org/2000/svg" xmlns:xlink="http://www.w3.org/1999/xlink" x="0px" y="0px"
	 viewBox="0 0 100 100" style="enable-background:new 0 0 100 100;" xml:space="preserve">
<style type="text/css">
	.st0{fill-rule:evenodd;clip-rule:evenodd;fill:#1C1C1E;}
	.st1{fill-rule:evenodd;clip-rule:evenodd;fill:#F9F5E1;}
</style>
<path class="st0" d="M69.3,21.6c-0.4,0-0.5-0.2-0.8-0.2c-0.1,0.3,0.1,0.7-0.5,0.8c-0.3-0.2-0.3-0.7-0.8-0.7
	c-0.2-0.1-0.1-0.6-0.2-0.7c-0.4-0.2-0.3-0.2-0.9-0.2c-0.2-0.3-0.3-0.7-0.7-0.8c-0.2-0.1-0.6-0.2-0.8,0c-1-1.1-2-2.1-3.1-3.1
	c-7.6,0-15.1,0-22.7,0c-2.1,1.7-3.9,3.7-5.9,5.6c-1.5,1.4-2.9,3-4.3,4.4c-0.5,0.5-1.1,0.9-1.4,1.5c-0.3,0.1-0.7,0.5-1.1,0.9
	c-0.3,0.3-0.7,0.7-0.8,1.2c-0.1,0.4,0.3,0.9,0.3,1.4c0,0.2-0.1,0.8-0.1,1c0,4.2,0,8.6,0,12.7c0,1.7-0.2,3.3,0,4.6
	c0,0.2,0,0.4,0.2,0.5c-0.2,0.1-0.2,0.4-0.2,0.6c-0.3,2.8,0.2,6.4,0,9.4c0.2,0.3,0.5-0.2,0.6,0.1c-0.1,0.2,0,0.3,0.1,0.4
	c0.4,0.4,0.9,0.8,1.2,1.1c3.6,3.6,7.4,7.4,10.9,11c1.9,1.9,3.8,3.8,5.7,5.7c1.7,1.7,3.5,3.7,5.2,5.3c0.1,0.1,0.2,0.1,0.3,0.1
	c0.1,0.1,0,0.2,0.1,0.3c0.1,0.1,0.5,0.1,0.4,0.4c0.4-0.1,0.5-0.5,0.8-0.7c0.8-0.8,1.6-1.6,2.4-2.3c-0.1-0.5,0.1-0.9,0.3-1.2
	c0.2-0.2,0.7-0.1,1-0.1c0.8-0.9,1.7-1.6,2.5-2.5c2.9-2.9,6-5.9,8.8-8.8c0.9-0.9,1.7-1.7,2.5-2.5c0.4-0.4,0.9-0.8,1.3-1.2
	c0.1-0.1,0.1-0.3,0.2-0.4c0.2-0.2,0.4-0.3,0.5-0.4c0.1-0.1,0.2-0.2,0.3-0.3c0.1-0.1,0.1-0.1,0.2-0.2c1.3-1.3,2.4-2.6,3.8-3.8
	c-0.2-0.4-0.1-1.1-0.1-1.7c0-0.6-0.1-1.2,0-1.5c0.1-0.3-0.3-0.2-0.5-0.2c0-0.3-0.3-0.2-0.3-0.5c0.1-0.1,0.1-0.4,0.3-0.4
	c0.2-0.1,0.6,0.1,0.5-0.2c-0.2-3.4-0.1-7.7-0.1-11.9c0.3,0.1,0.5,0.1,0.3-0.2c0-0.4-0.2,0.4-0.3,0c0-1.2,0-2.5,0-3.8
	c0-1.4-0.2-3.4,0.1-4.2c0.2-0.4,0.3-0.7,0.3-1.1c0-0.3-0.1-0.9-0.2-1c0.1,0.1-0.2,0.1-0.1-0.1c-0.1-0.4,0.3,0.1,0.2-0.4
	c0-0.4-0.3,0.3-0.3,0c0-0.9,0-2.5,0-3.7c-1.6-1.7-3.5-3.5-5.1-5.2c-0.2-0.2-0.5-0.4-0.6-0.7c-0.4,0,0-0.3,0-0.4
	c0.2,0,0.3,0.1,0.3,0.3c-0.1,0.3,0.3,0.1,0.2,0.4c0.2,0.2,0.6,0.2,1,0.3c0.4-0.5,0-0.5-0.1-1.1c0.1-0.2,0.6,0.1,0.5-0.3
	c-0.3-0.1-0.4-0.3-0.8-0.3c0.4-0.4-0.1-0.5-0.3-0.6C69.5,22,69.3,21.9,69.3,21.6"/>
<path class="st1" d="M28.6,52.5L28.6,52.5L28.6,52.5z"/>
<polygon class="st1" points="22.5,51.1 22.5,51 22.5,51 22.5,51 22.5,51 22.5,51 22.5,51 22.5,51 22.5,51 22.5,51 22.5,51 22.5,51 
	22.5,51 22.5,51 22.5,51 22.5,51 22.5,51 22.5,51 22.5,51 22.5,51 22.5,51 22.5,51 22.5,51 22.5,51 22.5,51 22.5,51 22.5,51 
	22.5,51 22.5,51 22.5,51 22.5,51 22.5,51 22.5,51 22.5,51 22.5,51 22.5,51 22.5,51 22.5,51 22.5,51 22.6,51 22.6,51 22.6,51 
	22.6,51 22.6,51 22.6,51 22.6,51 22.6,51 22.6,51 22.6,51 22.6,51 22.6,51 22.6,51 22.6,51 22.6,51 22.6,51 22.6,51 22.6,51 
	22.6,51 22.6,51 22.6,51 22.6,51 22.6,51 22.6,51 22.6,51 22.6,51 22.6,51 22.6,51 22.6,51 22.6,51 22.6,51 22.6,51 22.6,51 
	22.6,51 22.6,51 22.6,51 22.6,51 22.6,51 22.6,51 22.6,51 22.6,51 22.6,51 22.6,51 22.6,51 22.6,51 22.6,51 22.6,51 22.6,51 
	22.6,51 22.6,51 22.6,51 22.6,51 22.6,51 22.6,51 22.6,51 22.6,51 22.6,51.1 22.6,51.1 22.6,51.1 22.6,51.1 22.6,51.1 22.6,51.1 
	22.6,51.1 22.6,51.1 22.6,51.1 22.6,51.1 22.6,51.1 22.6,51.1 22.6,51.1 22.6,51.1 22.6,51.1 22.6,51.1 22.6,51.1 22.6,51.1 
	22.6,51.1 22.6,51.1 22.6,51.1 22.6,51.1 22.6,51.1 22.6,51.1 22.6,51.1 22.6,51.1 22.6,51.1 22.6,51.1 22.6,51.1 22.6,51.1 
	22.6,51.1 22.6,51.1 22.6,51.1 22.6,51.1 22.6,51.1 22.6,51.1 22.6,51.1 22.6,51.1 22.6,51.1 22.6,51.1 22.6,51.1 22.6,51.1 
	22.6,51.1 22.6,51.1 22.6,51.1 22.6,51.1 22.5,51.1 22.5,51.1 22.5,51.1 22.5,51.1 22.5,51.1 22.5,51.1 22.5,51.1 22.5,51.1 
	22.5,51.1 22.5,51.1 22.5,51.1 22.5,51.1 22.5,51.1 22.5,51.1 22.5,51.1 22.5,51.1 22.5,51.1 22.5,51.1 22.5,51.1 22.5,51.1 
	22.5,51.1 22.5,51.1 22.5,51.1 22.5,51.1 22.5,51.1 22.5,51.1 22.5,51.1 22.5,51.1 22.5,51.1 22.5,51.1 "/>
<path class="st1" d="M22.8,43c0.2-0.9,0.5-1.4,0.2-1.6l0,0l0,0l0,0l0,0l0,0l0,0l0,0l0,0l0,0l0,0v0l0,0l0,0l0,0l0,0l0,0l0,0l0,0l0,0
	l0,0l0,0l0,0l0,0l0,0l0,0l0,0l0,0l0,0l0,0l0,0l0,0l0,0v0l0,0l0,0l0,0l0,0l0,0l0,0l0,0l0,0l0,0l0,0l0,0l0,0l0,0l0,0l0,0l0,0l0,0l0,0
	h0l0,0l0,0l0,0l0,0l0,0l0,0l0,0l0,0l0,0l0,0l0,0l0,0l0,0l0,0l0,0l0,0v0l0,0l0,0v0l0,0l0,0l0,0l0,0l0,0l0,0l0,0v0l0,0l0,0l0,0
	c-0.1-0.3-0.2-0.5-0.3-0.8c-0.2-1.3,0-3.5,0-4.8c0-0.6,0.2-1.2-0.2-1.5h0h0h0l0,0h0h0l0,0h0h0l0,0h0l0,0h0h0l0,0h0l0,0h0l0,0l0,0
	l0,0h0l0,0h0l0,0h0l0,0v0h0l0,0l0,0h0l0,0l0,0l0,0h0l0,0l0,0l0,0l0,0l0,0h0l0,0l0,0v0l0,0l0,0l0,0l0,0l0,0h0l0,0l0,0l0,0v0l0,0l0,0
	l0,0l0,0l0,0l0,0l0,0v0l0,0l0,0l0,0v0l0,0l-0.1-0.3c0.2-0.4,0.1-0.3,0-0.6l0,0l0,0l0,0h0l0,0l0,0l0,0l0,0l0,0l0,0l0,0l0,0h0l0,0l0,0
	h0l0,0l0,0l0,0l0,0l0,0l0,0h0l0,0l0,0l0,0l0,0l0,0l0,0l0,0h0l0,0l0,0h0l0,0l0,0l0,0h0l0,0h0l0,0l0,0l0,0l0,0l0,0l0,0l0,0l0,0l0,0
	l0,0l0,0l0,0h0l0,0h0l0,0h0l0,0l0,0h0l0,0h0l0,0h0l0,0h0l0,0h0l0,0h0h0h0h0l0,0h0h0h0h0h0h0h0h0l0,0h0h0h0l0,0c-0.1-0.4,0.1-0.7,0-1
	c0-0.1-0.2-0.1-0.2-0.2c0-0.2,0.2-0.2,0.2-0.3c0,0-0.5-0.5-0.1-0.5c0,0.1,0,0.2,0.1,0.2c0-0.2,0-0.4,0-0.6c-0.2,0-0.2,0.1-0.3,0.2
	l0,0l0,0h0l0,0l0,0v0l0,0v0l0,0l0,0l0,0v0l0,0v0l0,0v0v0v0l0,0v0v0v0v0v0v0v0v0l0,0v0v0v0v0l0,0v0l0,0v0l0,0l0,0l0,0l0,0v0l0,0l0,0
	v0l0,0l0,0v0l0,0v0l0,0l0,0l0,0l0,0h0l0,0l0,0l0,0l0,0l0,0h0h0l0,0l0,0h0l0,0l0,0l0,0l0,0h0v0h0l0,0h0l0-0.2
	c0.2-0.8,0.6-0.7-0.2-1.1l0.1-0.3h0h0h0h0h0h0h0h0h0h0h0h0h0l0,0h0h0h0h0h0h0h0h0h0h0h0h0h0h0h0l0,0h0h0h0h0h0h0h0h0h0h0h0h0h0h0h0
	c0.3-0.1,0.4-0.5,0.5-0.1c4.2-4.2,8.4-8.6,12.6-12.6c0.6-0.6,1.2-1.3,1.9-1.8c1.2,0,3.1,0.1,4.6,0l0,0v0v0v0l0,0v0v0l0,0v0v0v0l0,0
	v0l0,0v0v0l0,0v0l0,0l0,0l0,0l0,0l0,0l0,0l0,0v0c0,0,0,0,0,0l0,0l0,0l0,0v0l0,0l0,0l0,0l0,0h0l0,0l0,0l0,0l0,0l0,0l0,0l0,0l0,0l0,0
	h0l0,0l0,0l0,0h0l0,0l0,0l0,0l0,0h0l0,0l0,0h0l0,0h0l0,0l0,0l0,0l0,0l0,0l0,0l0,0l0,0l0,0l0,0h0l0,0l0,0h0l0,0h0l0,0l0,0h0l0,0h0
	l0,0l0,0l0,0l0,0l0,0l0,0l0,0l0,0h0l0,0h0l0,0l0,0l0,0l0,0l0,0l0,0l0,0l0.2,0c-0.3,0.8-0.6,0.5,0.4,0.5l0.6-0.5h0.4l0,0l0,0l0,0l0,0
	v0l0,0l0,0l0,0l0,0l0,0l0,0l0,0l0,0v0l0,0l0,0l0,0l0,0l0,0l0,0l0,0l0,0l0,0l0,0l0,0l0,0l0,0l0,0l0,0l0,0l0,0l0,0l0,0l0,0l0,0l0,0
	l0,0l0,0l0,0l0,0l0,0h0l0,0h0l0,0l0,0l0,0l0,0v0l0,0l0,0l0,0l0,0v0l0,0l0,0l0,0l0,0h0l0,0l0,0l0,0l0,0l0,0v0l0,0v0l0,0l0,0l0,0l0,0
	v0l0,0l0,0l0,0l0,0v0l0,0l0,0l0,0l0,0l0,0h0l0,0l0,0v0l0,0v0l0,0v0l0,0v0v0v0l0,0v0v0v0c0.9,0,1.2-0.1,2,0c0.3,0.3,0.3-0.3,0.7-0.2
	c0.3,0.3,1.3,0.1,1.7,0.3c0.2-0.2,0.3-0.4,0.7-0.3c0.2-0.1,0.2,0.2,0.2,0.2c0.1,0.1,0.4,0,0.5,0c0.8,0.1,1.7-0.1,2.6,0
	c0.9,0.1,1.5,0,2.2,0c0.5,0,0.9,0.1,1.4,0.1c2.3,0,4.6-0.2,6.9,0c1.1,1,2.1,2.1,3.2,3.2c0.9,0.9,2.1,1.9,2.8,2.8
	c0.1,0.2,0.1,0.4,0.4,0.5c-0.3,0.2-0.1,0.5,0,0.9c-0.4,0-0.5-0.2-0.8-0.2c-0.1,0.3,0.1,0.7-0.5,0.8c-0.3-0.2-0.3-0.7-0.8-0.7
	c-0.2-0.1-0.1-0.6-0.2-0.7c-0.4-0.2-0.3-0.2-0.9-0.2c-0.2-0.3-0.3-0.7-0.7-0.8c-0.2-0.1-0.6-0.2-0.8,0c-1-1.1-2-2.1-3.1-3.1
	c-7.6,0-15.1,0-22.7,0c-2.1,1.7-3.9,3.7-5.9,5.6c-1.5,1.4-2.9,3-4.3,4.4c-0.5,0.5-1.1,0.9-1.4,1.5c-0.3,0.1-0.7,0.5-1.1,0.9
	c-0.3,0.3-0.7,0.7-0.8,1.2c-0.1,0.4,0.3,0.9,0.3,1.4c0,0.2-0.1,0.8-0.1,1c0,4.2,0,8.6,0,12.7c0,1.7-0.2,3.3,0,4.6
	c0,0.2,0,0.4,0.2,0.5c-0.2,0.1-0.2,0.4-0.2,0.6c-0.3,2.8,0.2,6.4,0,9.4c0.2,0.3,0.5-0.2,0.6,0.1c-0.1,0.2,0,0.3,0.1,0.4
	c0.4,0.4,0.9,0.8,1.2,1.1c3.6,3.6,7.4,7.4,10.9,11c1.9,1.9,3.8,3.8,5.7,5.7c1.7,1.7,3.5,3.7,5.2,5.3c0.1,0.1,0.2,0.1,0.3,0.1
	c0.1,0.1,0,0.2,0.1,0.3c0.1,0.1,0.5,0.1,0.4,0.4c0.4-0.1,0.5-0.5,0.8-0.7c0.8-0.8,1.6-1.6,2.4-2.3c-0.1-0.5,0.1-0.9,0.3-1.2
	c0.2-0.2,0.7-0.1,1-0.1c0.8-0.9,1.7-1.6,2.5-2.5c2.9-2.9,6-5.9,8.8-8.8c0.9-0.9,1.7-1.7,2.5-2.5c0.4-0.4,0.9-0.8,1.3-1.2
	c0.1-0.1,0.1-0.3,0.2-0.4c0.2-0.2,0.4-0.3,0.5-0.4c0.1-0.1,0.2-0.2,0.3-0.3c0.1-0.1,0.1-0.1,0.2-0.2c1.3-1.3,2.4-2.6,3.8-3.8
	c-0.2-0.4-0.1-1.1-0.1-1.7c0-0.6-0.1-1.2,0-1.5c0.1-0.3-0.3-0.2-0.5-0.2c0-0.3-0.3-0.2-0.3-0.5c0.1-0.1,0.1-0.4,0.3-0.4
	c0.2-0.1,0.6,0.1,0.5-0.2c-0.2-3.4-0.1-7.7-0.1-11.9c0.3,0.1,0.5,0.1,0.3-0.2c0-0.4-0.2,0.4-0.3,0c0-1.2,0-2.5,0-3.8
	c0-1.4-0.2-3.4,0.1-4.2c0.2-0.4,0.3-0.7,0.3-1.1c0-0.3-0.1-0.9-0.2-1c0.1,0.1-0.2,0.1-0.1-0.1c-0.1-0.4,0.3,0.1,0.2-0.4
	c0-0.4-0.3,0.3-0.3,0c0-0.9,0-2.5,0-3.7c-1.6-1.7-3.5-3.5-5.1-5.2c-0.2-0.2-0.5-0.4-0.6-0.7c-0.4,0,0-0.3,0-0.4
	c0.2,0,0.3,0.1,0.3,0.3c-0.1,0.3,0.3,0.1,0.2,0.4c0.2,0.2,0.6,0.2,1,0.3c0.4-0.5,0-0.5-0.1-1.1c0.1-0.2,0.6,0.1,0.5-0.3
	c-0.3-0.1-0.4-0.3-0.8-0.3c0.4-0.4-0.1-0.5-0.3-0.6c-0.1-0.1-0.2-0.2-0.2-0.3c0.3-0.3,0.5-0.1,0.9-0.2c0.3,0.2,0.4,0.3,0.3,0.7
	c0.3-0.1,0.2-0.3,0.5,0c2,2.1,4.2,4.1,6.2,6.3c-0.2,2-0.2,4.1-0.2,6.3c0,1.2,0.1,2.3,0.1,3.3c0,0.2-0.2,0.5-0.2,0.7
	c0,0,0.1,0.3,0.1,0.4c0.2,3,0,5.5,0,8.2c0,0.8,0,1.5,0,2.3c0,0.3,0,0.6,0,0.9V51v0v0v0c0,0.1,0.1,0.2,0.1,0.2c0,0.1-0.1,0.2-0.1,0.2
	c0.1,1.5,0,3,0.1,4.4c0.1,2,0.1,3.9,0.1,5.9c-2.7,2.5-5.1,5.2-7.8,7.7c-0.1,0.3,0.5,0.4,0.2,0.7c-0.2,0.2-0.8,0.2-0.9,0
	c-0.7,0.9-1.6,1.5-2.2,2.5c-0.2,0.2-0.5,0.2-0.7,0.4c-0.1,0.3-0.2,0.5-0.4,0.7c-0.5,0.2-0.9,0.6-1.3,1c-0.9,0.9-6.1,5.9-6.3,6.6
	c-0.1,0.1-0.1,0-0.1,0l0,0l0,0c-0.2,0.2-0.3,0.4-0.5,0.7c-0.1,0.1-0.4,0.1-0.4,0.2c-0.2,0.2,0.2,0.4-0.1,0.6
	c-0.4-0.1-0.6,0.3-0.8,0.4c-0.4,0.2-0.3,0.2-0.6,0.5c-0.7,0.7-1.5,1.5-2.1,2.1c-0.3,0.3-0.5,0.4-0.7,0.7c-0.3,0.3-0.5,0.5-0.7,0.7
	c-0.2,0.2-0.4,0.4-0.5,0.5c-0.3,0.4-0.7,0.7-0.9,0.9c-0.1,0.2,0,0.5-0.3,0.5c-2-1.8-3.8-3.8-5.7-5.7c-0.3-0.5-0.9-0.9-1.3-1.2
	c-0.2-0.1-0.3-0.3-0.4-0.5c-0.5-0.6-1.3-1.1-1.8-1.7c-0.1-0.1,0-0.2-0.1-0.3c-0.8-1.1-1.8-1.9-2.7-2.8c-4.1-4.1-8.4-8.4-12.4-12.4
	c0-0.1-0.2-0.1-0.2-0.1c-0.1-0.1,0-0.1-0.1-0.2c-0.1-0.1-0.2-0.2-0.3-0.3c-0.5-0.6-1.1-1.3-1.6-1.7C23.3,62,23,62,22.9,61.7
	c0-4.4,0-8.7,0-12.9c0-0.3,0.5-0.2,0.4-0.6c-0.2-0.2,0-0.9-0.1-1.3c0-0.2,0-0.5,0-0.7c0-0.1,0-0.2,0-0.3c0-0.1,0-0.2-0.1-0.1
	c-0.1,0.5,0.2,1.4-0.2,1.5c0.1-0.5-0.2-0.4-0.3-0.6c-0.1-0.2-0.4-0.3-0.2-0.5c0.1,0.1,0.2,0.3,0.5,0.2c0-0.2,0-0.4,0-0.7
	c0.2,0.1,0.4-0.3,0.2-0.3c-0.1,0.3-0.3,0.3-0.2-0.1c0-0.8,0-1.5,0-2.3h0h0h0h0h0h0h0h0h0h0h0h0L22.8,43L22.8,43L22.8,43L22.8,43
	L22.8,43L22.8,43L22.8,43L22.8,43L22.8,43L22.8,43L22.8,43L22.8,43L22.8,43L22.8,43L22.8,43L22.8,43L22.8,43L22.8,43L22.8,43
	L22.8,43L22.8,43L22.8,43L22.8,43L22.8,43L22.8,43L22.8,43L22.8,43L22.8,43L22.8,43L22.8,43L22.8,43L22.8,43z"/>
<path class="st1" d="M22.6,34.9L22.6,34.9L22.6,34.9L22.6,34.9L22.6,34.9L22.6,34.9L22.6,34.9L22.6,34.9L22.6,34.9L22.6,34.9
	L22.6,34.9L22.6,34.9L22.6,34.9L22.6,34.9L22.6,34.9L22.6,34.9L22.6,34.9L22.6,34.9L22.6,34.9L22.6,34.9L22.6,34.9L22.6,34.9
	L22.6,34.9L22.6,34.9h0.1h0h0h0h0h0h0h0h0h0h0h0h0c0-0.1,0-0.1,0-0.2h0h0h0h0h0h0h0h0h0h0h0h0h0h0h0h0h0h0h0h0h0h0h0h0h0h0h0h0h0h0
	h0h0h0h0L22.6,34.9L22.6,34.9z"/>
<path class="st1" d="M77.6,53.1l0,0.5h0l0,0h0h0l0,0h0h0l0,0h0h0l0,0h0l0,0l0,0l0,0h0h0l0,0h0l0,0l0,0h0l0,0h0l0,0l0,0l0,0l0,0h0
	l0,0l0,0h0l0,0l0,0l0,0l0,0l0,0l0,0l0,0l0,0l0,0l0,0l0,0h0l0,0l0,0l0,0c0,0,0,0,0,0L77.6,53.1L77.6,53.1z"/>
<polygon class="st1" points="77.3,53.5 77.6,53.1 77.6,53.1 77.6,53.1 77.6,53.1 77.6,53.1 77.6,53.1 77.6,53.1 77.6,53.1 
	77.6,53.1 77.6,53.1 77.6,53.1 77.6,53.1 77.6,53.1 77.6,53.1 77.5,53.1 77.5,53.1 77.5,53.1 77.5,53.1 77.5,53.1 77.5,53.1 
	77.5,53.1 77.5,53.1 77.5,53.2 77.5,53.2 77.5,53.2 77.5,53.2 77.5,53.2 77.5,53.2 77.4,53.2 77.4,53.2 77.4,53.2 77.4,53.2 
	77.4,53.2 77.4,53.2 77.4,53.2 77.4,53.2 77.4,53.2 77.4,53.2 77.4,53.2 77.4,53.2 77.4,53.2 77.4,53.2 77.4,53.2 77.4,53.2 
	77.4,53.2 77.4,53.2 77.4,53.2 77.4,53.2 77.4,53.2 77.4,53.2 77.3,53.3 77.3,53.3 77.3,53.3 77.3,53.3 77.3,53.3 77.3,53.3 
	77.3,53.3 77.3,53.3 77.3,53.3 77.3,53.3 77.3,53.3 77.3,53.3 77.3,53.3 77.3,53.3 77.3,53.3 77.3,53.3 77.3,53.4 77.3,53.4 
	77.3,53.4 77.3,53.4 77.3,53.4 77.3,53.4 77.3,53.4 77.3,53.4 77.3,53.4 77.3,53.4 77.3,53.4 77.3,53.4 77.3,53.4 77.3,53.4 
	77.3,53.4 77.3,53.5 77.3,53.5 "/>
<path class="st1" d="M25.9,58.6C25.7,59,26.3,58.4,25.9,58.6L25.9,58.6L25.9,58.6z"/>
<path class="st1" d="M64.9,20L64.9,20C64.7,19.7,65.2,20.3,64.9,20L64.9,20z"/>
<path class="st1" d="M66,25.4L66,25.4c0,0.1,0,0.1,0,0.2c0.1,0,0.1,0,0.2,0c0-0.1,0-0.1,0-0.2C66.1,25.4,66.1,25.4,66,25.4L66,25.4z
	"/>
<path class="st1" d="M37.9,62.9L37.9,62.9c0,0,0.2,0,0.1-0.1C37.9,62.8,37.8,62.9,37.9,62.9L37.9,62.9z"/>
<path class="st1" d="M38.5,63.9L38.5,63.9c-0.5,0-0.7,0.2-0.7,0.4c0-0.2,0.2,0.3,0.4,0.4c0.1,0,0.2,0,0.3,0c0.1,0,0,0.3,0.2,0.2
	C38.7,64.5,38.5,64.5,38.5,63.9L38.5,63.9z"/>
<path class="st1" d="M37,64.2L37,64.2c-0.2,0-0.4,0-0.5,0.1c0,0.1,0,0.2,0.1,0.3C36.8,64.6,37,64.5,37,64.2L37,64.2z"/>
<path class="st1" d="M34.9,65.2L34.9,65.2c0,0,0.2,0,0.1-0.1C34.9,65.1,34.8,65.2,34.9,65.2L34.9,65.2z"/>
<path class="st1" d="M36.5,65.4L36.5,65.4c0,0.2,0.1,0.5,0.4,0.4C36.8,65.6,36.8,65.3,36.5,65.4L36.5,65.4z"/>
<path class="st1" d="M37,66.2L37,66.2c0.2-0.1,0.3,0.3,0.4,0C37.3,66.2,37,66,37,66.2L37,66.2z"/>
<path class="st1" d="M67.8,38L67.8,38c0.1,0.4-0.4,0.3-0.5,0.5c0,0.2,0,0.3,0,0.5c0.3,0.3,0.8,0.6,0.5,1.2c0.1,0,0.1,0.2,0.2,0.3
	c0.3,0.1,0.2,0,0.6,0c0.1-0.3,0.1-0.6,0.3-0.7c0.4-0.1,0.4,0.3,0.8,0.3c0.4-0.1,0.6-0.3,0.5-0.9c-0.4-0.4-0.9-0.2-1.2,0.2
	c0.1-0.3-0.3-0.2-0.5-0.2C68.3,38.8,68.2,38.2,67.8,38L67.8,38z"/>
<path class="st1" d="M67.6,38.2L67.6,38.2c0,0,0.2,0,0.1-0.1C67.7,38.1,67.6,38.1,67.6,38.2L67.6,38.2z"/>
<path class="st1" d="M70.3,38.8L70.3,38.8c0,0.3,0.2,0.3,0.3,0.4c0-0.1,0-0.3,0-0.4C70.5,38.8,70.4,38.8,70.3,38.8L70.3,38.8z"/>
<path class="st1" d="M70.7,39.8L70.7,39.8c0,0.1,0,0.1,0.1,0.1C71.1,39.9,70.9,39.5,70.7,39.8L70.7,39.8z"/>
<path class="st1" d="M70.1,40L70.1,40c0,0.1,0,0.1,0,0.2c0.1,0,0.1,0,0.2,0c0-0.1,0-0.1,0-0.2C70.2,40,70.2,40,70.1,40L70.1,40z"/>
<path class="st1" d="M67.8,40.3L67.8,40.3c-0.1-0.3-0.6-0.2-0.6,0.2C67.5,40.5,67.8,40.5,67.8,40.3L67.8,40.3z"/>
<path class="st1" d="M70.6,40.1L70.6,40.1c-0.1,0.1-0.1,0.4,0.1,0.4C70.8,40.3,70.8,40.1,70.6,40.1L70.6,40.1z"/>
<path class="st1" d="M67.6,41.2L67.6,41.2C68.5,41.7,68.1,40.6,67.6,41.2L67.6,41.2z"/>
<path class="st1" d="M64,42.2L64,42.2c-0.3,0.3-0.1,0.5,0,0.9c-0.3,0.2-0.2,0.7-0.6,0.8c0.4,0.2,0.6-0.3,1,0c0-0.4,0.5-0.2,0.3-0.7
	c-0.2,0-0.4,0-0.4-0.1c0-0.4,0.4-0.3,0.4-0.7C64.4,42.4,64.4,42.1,64,42.2L64,42.2z"/>
<path class="st1" d="M63.5,42.4L63.5,42.4c-0.2-0.1-0.4,0.3-0.2,0.3C63.3,42.5,63.6,42.6,63.5,42.4L63.5,42.4z"/>
<path class="st1" d="M62.6,42.6L62.6,42.6c0,0.1,0,0.2,0,0.3C62.9,43,62.9,42.4,62.6,42.6L62.6,42.6z"/>
<path class="st1" d="M62.2,43.2L62.2,43.2c0.1,0,0.2,0.1,0.3,0.2c0,0.1-0.1,0.2-0.3,0.2C62.2,43.4,62.2,43.3,62.2,43.2
	c-0.4,0-0.5,0.2-0.5,0.5c0.3,0.2,0.9,0.1,1.2-0.1C62.9,43.2,62.4,42.9,62.2,43.2L62.2,43.2z"/>
<path class="st1" d="M70,43.5c-0.4,0-0.5-0.4-0.7,0.1c0.1,0,0.3,0,0.3,0.1c-0.2,0-0.3,0-0.5,0c0.1,0.4,0,0.3,0,0.8
	c0.3,0,0.3,0.2,0.4,0.3c0.3-0.1,0.5-0.2,0.6-0.5c-0.3-0.2-0.6,0.1-0.7-0.1C69.5,43.8,70,43.9,70,43.5L70,43.5z"/>
<path class="st1" d="M64.6,44.6L64.6,44.6C64.9,44.9,64.9,44.2,64.6,44.6L64.6,44.6z"/>
<path class="st1" d="M70,44.9L70,44.9c0,0.3,0,0.4,0.3,0.4C70.3,45,70.3,44.9,70,44.9L70,44.9z"/>
<path class="st1" d="M70.9,46.2L70.9,46.2c-0.1,0.2-0.3,0.2-0.5,0.3c0.1,0.3,0,0.3,0,0.7c0.3-0.1,0.3,0.1,0.5,0.1
	C70.9,46.9,71.3,46.3,70.9,46.2L70.9,46.2z"/>
<path class="st1" d="M62.3,49L62.3,49c-1-0.1-0.8,1.7,0,1.3c0-0.3-0.4-0.6-0.2-0.8c0.1,0.2,0.5,0,0.4,0.3c0.2-0.1,0.5-0.1,0.5-0.4
	c-0.1-0.2-0.2,0.3-0.6,0.1C62.4,49.3,62.4,49.1,62.3,49L62.3,49z"/>
<path class="st1" d="M64.9,26L64.9,26c0,0.1-0.1,0.2-0.1,0.4c0.1,0,0.2,0,0.3,0C65.1,26.2,65.2,25.9,64.9,26L64.9,26z"/>
<path class="st1" d="M65.6,26.1L65.6,26.1C65.3,26.4,66,26.4,65.6,26.1L65.6,26.1z"/>
<path class="st1" d="M66,26.2L66,26.2c0,0.1,0.2,0.2,0.2,0.2C66.5,26.3,66.1,25.8,66,26.2L66,26.2z"/>
<path class="st1" d="M64.6,26.5L64.6,26.5c-0.7-0.2-1,0.7-1.7,0.7c0.1,0.4,0.2,0.6,0.6,0.7c0.1-0.4,0.5-0.3,0.4-0.9
	C64.2,26.9,64.6,26.9,64.6,26.5L64.6,26.5z"/>
<path class="st1" d="M64.7,27.1L64.7,27.1c-0.3,0-0.5,0.1-0.6,0.4C64.4,27.4,64.7,27.4,64.7,27.1L64.7,27.1z"/>
<path class="st1" d="M68,27.5L68,27.5c0,0.1,0.1,0.1,0.1,0C68.1,27.4,68,27.4,68,27.5L68,27.5z"/>
<path class="st1" d="M69,28.3L69,28.3C68.9,28.9,69.4,28.3,69,28.3L69,28.3z"/>
<path class="st1" d="M66.1,28.8L66.1,28.8c0,0.2-0.3,0.3-0.2,0.5c0,0,0.2,0,0.2,0.1c-0.1,0.2-0.5,0-0.4,0.4c0.2,0,0.4,0,0.6,0
	c0.1-0.5,0.8-0.4,0.9-0.9c-0.2,0-0.3,0-0.4-0.1c-0.1,0.1,0,0.4-0.2,0.4C66.2,29.3,66.3,28.8,66.1,28.8L66.1,28.8z"/>
<path class="st1" d="M63.1,22.9c0.1-0.1,0.1-0.4,0.1-0.7c-0.2,0-0.3-0.2-0.5-0.2C62.3,22.4,62.6,22.8,63.1,22.9L63.1,22.9L63.1,22.9
	z"/>
<path class="st1" d="M62.1,51.2L62.1,51.2c0,0.1,0,0.2-0.1,0.3c0.1,0,0.2,0.1,0.4,0.1c0-0.1,0-0.3,0-0.4
	C62.3,51.2,62.2,51.2,62.1,51.2L62.1,51.2z"/>
<path class="st1" d="M57.2,77.5c-0.1,0-0.2,0-0.2,0.1C57.1,77.6,57.2,77.6,57.2,77.5L57.2,77.5L57.2,77.5z"/>
<path class="st1" d="M53.9,77.2c0.1,0,0.2,0,0.3,0c0-0.1,0-0.2,0-0.3c-0.1,0-0.2,0-0.3,0C53.9,77,53.9,77.1,53.9,77.2L53.9,77.2
	L53.9,77.2z"/>
<path class="st1" d="M60.7,73.4c0.2,0.2,0.8-0.3,0.5-0.6C60.9,72.8,60.7,72.9,60.7,73.4L60.7,73.4L60.7,73.4z"/>
<path class="st1" d="M61.3,67.7c-0.1-0.1-0.3-0.1-0.3,0C61,67.9,61.4,67.9,61.3,67.7L61.3,67.7L61.3,67.7z"/>
<path class="st1" d="M60.2,67.6c-0.1,0.4,0.3,0.3,0.6,0.3C61,67.5,60.4,67.4,60.2,67.6L60.2,67.6L60.2,67.6z"/>
<path class="st1" d="M37,67.6L37,67.6L37,67.6z"/>
<path class="st1" d="M56.1,65.1c0.1,0.5-0.2,0.6-0.3,0.9c0.3,0.3,0.9,0.6,1.4,0.4c0-0.5-0.5-1-0.2-1.6C56.7,64.8,56.5,65,56.1,65.1
	L56.1,65.1L56.1,65.1z"/>
<path class="st1" d="M57.6,62.6c0,0.5,0.5,0.5,0.5,0C58,62.5,57.8,62.5,57.6,62.6L57.6,62.6L57.6,62.6z"/>
<path class="st1" d="M56.1,60c0,0-0.1,0.1-0.1,0.1C56.1,60.1,56.2,60.1,56.1,60L56.1,60L56.1,60z"/>
<path class="st1" d="M25.9,58.6C25.7,59,26.3,58.4,25.9,58.6L25.9,58.6L25.9,58.6z"/>
<path class="st1" d="M55.6,57.3c0-0.1,0-0.1,0.1-0.1c0-0.1,0-0.2-0.2-0.2C55.5,57.1,55.5,57.3,55.6,57.3L55.6,57.3L55.6,57.3z"/>
<path class="st1" d="M60.8,52.9c-0.1,0-0.2,0-0.2,0.1C60.7,53,60.8,53,60.8,52.9L60.8,52.9L60.8,52.9z"/>
<path class="st1" d="M58.5,53.3c0-0.3,0-0.5-0.2-0.5C58.2,53,58.2,53.4,58.5,53.3L58.5,53.3L58.5,53.3z"/>
<path class="st1" d="M60.8,52.5C60.8,52.5,60.7,52.4,60.8,52.5C60.7,52.6,60.8,52.6,60.8,52.5L60.8,52.5L60.8,52.5z"/>
<path class="st1" d="M55.4,51.7c0,0.5,0.2,0.7,0.6,0.7c0.3-0.2,0.1-0.5,0-0.8C55.8,51.6,55.5,51.6,55.4,51.7L55.4,51.7L55.4,51.7z"
	/>
<path class="st1" d="M60.6,51.2c0,0.1,0,0.1,0,0.2c0.2,0.2,0.3-0.3,0.1-0.3C60.7,51.2,60.7,51.2,60.6,51.2L60.6,51.2L60.6,51.2z"/>
<path class="st1" d="M59.3,51.1c0.2,0,0.3,0,0.5,0c0-0.3,0.1-0.5-0.1-0.7c-0.1,0-0.3,0-0.4,0C59.2,50.6,59.2,51,59.3,51.1L59.3,51.1
	L59.3,51.1z"/>
<path class="st1" d="M60.8,50.7c-0.2-0.2,0.3-0.6-0.2-0.7C60.7,50.2,60.5,50.8,60.8,50.7L60.8,50.7L60.8,50.7z"/>
<path class="st1" d="M60.6,48.6c0,0.5-0.2,1.1,0.2,1.3c-0.1-1,0-1.5,0-2.6c0-0.1-0.1-0.1-0.2-0.1C60.6,47.6,60.6,48.1,60.6,48.6
	L60.6,48.6L60.6,48.6z"/>
<path class="st1" d="M55.6,44.1c0,0-0.1,0.1-0.1,0.1C55.6,44.2,55.7,44.2,55.6,44.1L55.6,44.1L55.6,44.1z"/>
<path class="st1" d="M72,39.1c0,0.1,0,0.3,0,0.4c0.2,0.2,0.5,0.2,0.9,0.2C73,39.1,72.5,38.9,72,39.1L72,39.1L72,39.1z"/>
<path class="st1" d="M44,35.3c0-0.1-0.1-0.1-0.1,0C43.9,35.4,44,35.4,44,35.3L44,35.3L44,35.3z"/>
<path class="st1" d="M40.1,35c-0.1,0-0.2,0-0.2,0.1C40,35.1,40.1,35.1,40.1,35L40.1,35L40.1,35z"/>
<path class="st1" d="M56.7,59.4c-0.3,0-0.5,0.5-0.4,0.5C56.4,59.7,56.8,59.7,56.7,59.4L56.7,59.4L56.7,59.4z"/>
<path class="st1" d="M70.9,35.2c0-0.1,0.1-0.1,0.1-0.3c-0.6,0-1.2,0-1.8,0c0,1.3-0.4,0.4-1.1-0.1c-2.5-0.1-5.2,0.1-7.4,0
	c-0.1,0.4,0.4,0.4,0,0.6C60.5,39,60.7,43,60.6,47c0.4-0.1,0.2-0.6,0.2-0.8c0.1-2.3-0.1-4.9,0.1-6.9c0,0.7,0,1.4,0,2
	c0,0.2,0.4,0,0.4,0.3c-0.2,0-0.5-0.1-0.4,0.2c0.1,1.7,0.1,3,0.1,4.4c0,0.5-0.1,1-0.1,1.5c0,1.1,0.2,2.3,0.1,3.7
	c0,0.2,0.3,0.1,0.2,0.3c-0.3-0.2-0.2,0-0.2,0.2c-0.1,0.8,0.1,2.5,0,3.4c-0.8,0.9-1.6,1.7-2.4,2.5c-0.7,0.7-1.5,1.5-2.1,2.1
	c-0.1,0.1-0.2,0.3-0.4,0.3c0.4,0.8,1.1,1.2,1.7,1.8c0.1,0.1,0,0.2,0.1,0.3c0.1,0.1,0.2,0.1,0.3,0.2c0.3,0.4,0.6,0.6,0.9,0.9
	c1.4,1.3,2.7,2.6,4,4c0.4-0.2,0.8-0.6,1.1-0.9c2.4-2.4,4.8-4.8,7.1-7.2c-0.2-2.5-0.1-6.9-0.1-10.4c0.1-0.3-0.3-0.1-0.2-0.4
	c0-0.3,0.2-0.5,0.2-0.7c0-0.4-0.1-0.3,0-0.7c0.1-0.4-0.1-0.8,0-1.2c-0.3-0.2-0.1-0.3-0.3-0.7c0-0.1-0.1-0.3-0.1-0.4
	c-0.2-0.6,0.2-0.7,0.2-1.2c0.3,0,0.1-0.1,0.2-0.2c0-2.2,0-3.1,0-5.3c0.1-0.8-0.2-2.7,0.3-3.3C71.2,34.8,71.2,35.2,70.9,35.2
	L70.9,35.2L70.9,35.2z"/>
<path class="st1" d="M57.1,59.1c0.3-0.3,0.5-0.4,0.8-0.7c1.1-1,2.1-2.1,3-3.2c-0.7,0.3-1.3,1.1-1.8,1.5c-0.3,0.2-0.3,0.5-0.5,0.7
	c-0.5,0.7-1.4,1.1-1.8,1.9C57,59.3,57,59.2,57.1,59.1L57.1,59.1L57.1,59.1z"/>
<path class="st1" d="M37.7,66.8c0.2-0.2,0.6-0.6,0.5-0.7c0,0.2-0.4,0.1-0.5,0.1c0.9-0.7,0.9-0.7,1.3-0.7c1.6-1.7,3.4-3.4,5-5.1
	c0.1-0.2,0.5-0.2,0.6-0.3c-1.8-1.6-3.5-3.4-5.3-5.1c-0.1-3.3,0.1-6.1,0.1-8.6c0-0.8-0.1-1.7-0.1-2.5c0.1-2.7,0.1-5.4,0.1-8.6
	c0.1-0.3,0.4-0.6-0.1-0.7c-0.3,0,0.2,0.3-0.2,0.2c-3.4,0-6.9,0-10.3,0c0,0.5-0.2,2.6,0.2,2.8c-0.1,0,0.1-0.3,0.1-0.1
	c-0.2,0.3,0.2,1.1-0.1,1.5c-0.1-0.2,0.1-0.5-0.1-0.5c-0.2,1.2-0.1,2.9-0.1,4.3c-0.2,0-0.4-0.1-0.4,0.1c0.1,0.1,0.4,0.1,0.4,0.4
	c0,1.3,0,2.9,0,4.5c0,1.6-0.1,3.3,0.1,4.7c0,0.2-0.3,0.2-0.3,0.4c0.4,0.1,0.2,0.3,0.2,0.4c0.3,2.6-0.2,3.9,0,6.4
	c0.2,0,0.4,0,0.5,0.1c1.3,1.4,2.8,2.7,4,4c0.2,0.2,0.4,0.5,0.6,0.7c0.2,0.2,0.6,0.3,0.7,0.7c0.2,0.1,0.3,0.2,0.5,0.3
	c-0.1,0.2,0.3,0.5,0.3,0.3c-0.5,0.4,0.5-0.8,1,0.1c-0.3,0-0.4,0.3-0.6,0.4c0.3,0.4,0.8,0.7,1.1,1.1C37.2,67.3,37.5,67,37.7,66.8
	L37.7,66.8L37.7,66.8z"/>
<path class="st1" d="M71.1,34.5c0.1,0.1,0.3,0.1,0.5,0.1C71.7,34.2,71.2,34.3,71.1,34.5L71.1,34.5L71.1,34.5z"/>
<path class="st1" d="M35.7,34.3c-0.1,0-0.2,0-0.2,0.1C35.6,34.4,35.7,34.4,35.7,34.3L35.7,34.3L35.7,34.3z"/>
<path class="st1" d="M35.4,34.2c0,0-0.2,0.1-0.1,0.1C35.4,34.3,35.5,34.3,35.4,34.2L35.4,34.2L35.4,34.2z"/>
<path class="st1" d="M26.1,33.3L26.1,33.3L26.1,33.3L26.1,33.3L26.1,33.3L26.1,33.3L26.1,33.3L26.1,33.3L26.1,33.3L26.1,33.3
	l-0.1,0.1v0v0v0C25.9,33.8,26.2,33.4,26.1,33.3L26.1,33.3L26.1,33.3z"/>
<path class="st1" d="M67.1,34c0.4,0,0.5-0.1,0.8-0.2c0.1-0.4-0.3-0.3-0.3-0.6C66.9,33,66.8,33.7,67.1,34L67.1,34L67.1,34z"/>
<path class="st1" d="M44,32c0,0-0.2,0.1-0.1,0.1C44,32.1,44.1,32.1,44,32L44,32L44,32z"/>
<path class="st1" d="M44.3,31.6c-0.1,0-0.2,0-0.1,0.1C44.3,31.7,44.4,31.7,44.3,31.6L44.3,31.6L44.3,31.6z"/>
<path class="st1" d="M63.4,31c-0.2,0.2-0.1,0.4-0.2,0.5c0,0.1-0.2-0.1-0.3,0c0.1,0-0.2,0.3-0.2,0.3c-0.1,0.3-0.1,0.5,0,0.9
	c0.5,0.1,0.5-0.3,0.9-0.3c-0.1-0.7,0.5-0.7,0.3-1.4C63.8,31,63.6,31,63.4,31L63.4,31L63.4,31z"/>
<path class="st1" d="M38.8,30.8c0,0-0.2,0.1-0.1,0.1C38.8,31,38.9,30.9,38.8,30.8L38.8,30.8L38.8,30.8z"/>
<path class="st1" d="M70.8,30.5c0.2,0.2,0.8,0.3,0.8-0.2C71.4,30.1,70.9,30.2,70.8,30.5L70.8,30.5L70.8,30.5z"/>
<path class="st1" d="M37.4,30.2C37.7,30.5,37.2,29.9,37.4,30.2L37.4,30.2L37.4,30.2z"/>
<path class="st1" d="M26.1,29.6c0.2,0,0.3-0.1,0.3-0.2C26.3,29.4,26.1,29.4,26.1,29.6L26.1,29.6L26.1,29.6z"/>
<path class="st1" d="M27.3,29.3C26.9,29,27.1,29.6,27.3,29.3L27.3,29.3L27.3,29.3z"/>
<path class="st1" d="M26.4,29.1c0,0-0.2,0.1-0.1,0.1C26.4,29.3,26.5,29.2,26.4,29.1L26.4,29.1L26.4,29.1z"/>
<path class="st1" d="M27.3,28.8c-0.1,0-0.2,0-0.2,0.1C27.2,28.9,27.3,28.9,27.3,28.8L27.3,28.8L27.3,28.8z"/>
<path class="st1" d="M35.3,21.9c0,0-0.2,0.1-0.1,0.1C35.3,22.1,35.4,22,35.3,21.9L35.3,21.9L35.3,21.9z"/>
<path class="st1" d="M50.6,19.3c0,0-0.2,0.1-0.1,0.1C50.6,19.4,50.7,19.4,50.6,19.3L50.6,19.3L50.6,19.3z"/>
<path class="st1" d="M44.6,19.3c0,0-0.2,0.1-0.1,0.1C44.6,19.4,44.7,19.4,44.6,19.3L44.6,19.3z"/>
<path class="st1" d="M48.5,19.2c0.1,0.3,0.1-0.2-0.1-0.1C48.3,19.3,48.3,19.3,48.5,19.2L48.5,19.2L48.5,19.2z"/>
<path class="st1" d="M45,19.2c0.2-0.2,0.6,0.2,0.5-0.4C45.2,18.7,44.9,19.2,45,19.2L45,19.2L45,19.2z"/>
<path class="st1" d="M44.2,19c0.1,0,0.1,0,0.2,0c0-0.1,0-0.1,0-0.2c-0.1,0-0.1,0-0.2,0C44.2,18.9,44.2,18.9,44.2,19L44.2,19L44.2,19
	z"/>
<path class="st1" d="M43.6,19c0.1,0,0.4,0,0.4-0.1C43.9,18.8,43.7,18.8,43.6,19L43.6,19L43.6,19z"/>
<path class="st1" d="M56.6,18.7C56.6,18.7,56.6,18.7,56.6,18.7C56.6,18.7,56.6,18.7,56.6,18.7C56.6,18.7,56.6,18.7,56.6,18.7
	C56.6,18.7,56.6,18.7,56.6,18.7L56.6,18.7L56.6,18.7z"/>
<path class="st1" d="M44.7,45c-0.1,0.3,0,0.8,0,0.9c0,0.1-0.1,0-0.1,0.1c0,0.1,0.2,0.2,0.2,0.3c0,0.3-0.1,0.8-0.1,1.2
	c0,1.3-0.2,3.1,0,4.2c0.1,0.3,0.3,0.4,0.2,0.7c-0.2-0.2-0.2,0.1,0,0.1c0.1,0.3-0.2,0.2-0.2,0.4c-0.2,0.8,0,1.8,0,2.8
	c0,2.8,0,5.8,0,8.4c0,0.2,0.2,0,0.2,0.1c0.2,0.5-0.2,0.3-0.2,0.1c0,0.8,0,1.5,0,2.3c-0.2,0-0.5-0.1-0.4,0.2c0.1,0.2,0.4-0.1,0.4,0.1
	c0.2,1.3-0.3,3.3,0,4.4c0.1,0.2,0.3-0.1,0.2,0.2c-0.1,0.2-0.2-0.2-0.2,0.2c-0.1,0.5,0.1,1.4,0.2,1.8c-0.5-0.2-0.1,0.6-0.1,0.8
	c0,0.2-0.2,0.3-0.2,0.5c0,0.3,0.2,0.4,0,0.5c0.3-0.1,0.4,0.1,0.6,0.2c1.3,1.3,2.6,2.7,3.9,4c0.4,0.4,1,1.2,1.6,0.9
	c0.2-0.4-0.3-0.1-0.3-0.3c0.5-0.3,0.8-0.8,1.2-1.2c0.3-0.3,0.8-0.7,1.1-1c0,0,0-0.2,0-0.2c0.1,0,0.2,0.1,0.2,0
	c0.1-0.1,0-0.1,0.1-0.2c0.4-0.4,0.7-0.7,1.1-1.1c0.4-0.4,1.1-0.8,1.2-1.3c0.3-1-0.2-2,0-3.3c0-0.2,0.3-0.1,0.4-0.2
	c0.1-0.4-0.5-0.1-0.4-0.5c0-0.3,0-0.6,0-0.9c0.2,0,0.4,0,0.6,0c0.2-0.7,0.1-1.6,0.1-2.2c-0.4,0-0.5-0.2-0.7-0.3
	c-0.1-0.5-0.1-1.3,0-1.6c0-0.1-0.1-0.1-0.1-0.2c0-0.1,0.1-0.1,0.1-0.1c0-0.1-0.1-0.1-0.1-0.2c0-0.2,0.1-0.5,0.1-0.7
	c-0.1-0.3-0.2-0.3-0.2-0.5c0,0,0.2-0.1,0.2-0.1c0.3-0.5-0.1-1.4-0.1-1.9c0-0.8,0.2-1.6,0.2-2.4c0-2.8-0.2-5.8-0.1-8.6
	c0.1-0.3,0.6-0.2,0.6-0.6c0.1-0.3-0.5-0.1-0.6-0.3c0-2.6,0-4.8,0-7.5c-0.1-0.3-0.2-0.5-0.3-0.8c0.4-1.2,0.3-2.8,0.3-4.4
	c0-1,0.1-2,0.1-3c0-1.7-0.4-3.4,0.1-4.8c4.3-0.1,8.7,0.1,12.8-0.1c-0.3,0.1-0.2-0.2-0.2-0.4c0.2,0.1,0.8-0.1,1.1,0.2
	c0.1,0.3-0.4,0.1-0.5,0.3c0.8,0,1.6,0,2.4,0c0.1-0.3-0.3-0.2-0.5-0.2c0.1-0.3,0.1-0.2,0-0.5c-0.2-0.1-0.4-0.1-0.6-0.3
	c-0.1-0.5-0.5-0.8-0.8-1.1c-0.3-0.3-0.7-0.7-1.1-0.9c-0.3,0.1-0.4,0.3-0.9,0.2c-0.3-0.2-0.4-0.6-0.3-1.1c-0.4-0.1-0.4-0.5-0.4-0.9
	c-2-1.8-3.8-3.8-5.8-5.7c0,0.2-0.2,0-0.2,0c-0.8,0-1.8,0.1-2.6,0.1c-0.5,0-1.1,0-1.6,0c-0.6,0-1.3-0.1-1.9-0.1c-0.3,0-0.6,0-0.8,0
	c-0.2,0-0.2,0.1-0.4,0.1c-0.1,0-0.1-0.1-0.3-0.1c-0.2,0-0.2,0.1-0.4,0.1c-0.7,0-1.4-0.1-2.1-0.1c-0.7,0-1.5,0.1-2,0
	c-0.1,0-0.3,0-0.2-0.2c-0.3-0.1-0.1,0.3-0.4,0.2c-0.2-0.2-0.6-0.3-0.7-0.4c-0.1-0.1,0.1-0.3,0-0.3c-0.1-0.1-0.3,0-0.4-0.1
	c-0.5,0-0.5,0.4-1,0.5c0.1,0,0.1,0.2,0,0.2c-0.2-0.2-0.3,0.1-0.4,0.1c-1.6,0.3-3.9-0.2-5.7,0c-0.6,0.4-1.1,1.1-1.6,1.6
	c-0.1,0.2-0.5,0.3-0.4,0.5c0.2-0.3-0.1,0.2-0.1,0.4c-0.2,0.2-0.4-0.1-0.6,0.1c-0.4,0.4-0.7,0.9-1.3,1.1c-0.3,0.8-1,1.3-1.6,1.8
	c-1.7,1.7-3.4,3.4-5,5.2c0.8-0.3,2-0.2,3.1-0.2c0.3,0-0.2,0.3,0.2,0.2c0.1-0.2,0.2-0.2,0.4-0.2c0.6-0.1,1.6,0,2.5,0
	c1.3,0,2.6-0.1,3.2,0.2c0.1-0.4,0.9-0.1,1.3-0.2c0.3,0-0.1,0.5,0.3,0.3c0.2-0.1,0.2-0.3,0.5-0.3c1.4,0,2.8,0,4.2,0
	c-0.1,0.7,0.1,2,0,3c-0.1,0.2-0.5,0-0.4,0.4c0.1,0.2,0.4-0.1,0.4,0.1c-0.1,4.4-0.1,6.9,0,10.6c-0.2,0.1-0.6-0.1-0.5,0.2
	C44.3,44.7,44.8,44.6,44.7,45L44.7,45L44.7,45z"/>
<path class="st1" d="M50.6,18.7c0.1,0.1,0.2,0.2,0.4,0.1C51.1,18.5,50.7,18.4,50.6,18.7L50.6,18.7L50.6,18.7z"/>
<path class="st1" d="M49.5,18.3c-0.1,0-0.2-0.1-0.3-0.1C49.1,18.5,49.6,18.5,49.5,18.3L49.5,18.3L49.5,18.3z"/>
<path class="st1" d="M45.2,18.4c0.2-0.3-0.4-0.3-0.4-0.1C45,18.3,45,18.5,45.2,18.4L45.2,18.4L45.2,18.4z"/>
<path class="st1" d="M50.5,18.1C50.3,18.5,50.9,17.9,50.5,18.1L50.5,18.1L50.5,18.1z"/>
<path class="st1" d="M46.6,18.1C46.4,18.4,46.9,17.8,46.6,18.1L46.6,18.1L46.6,18.1z"/>
<path class="st1" d="M47.8,18.1c0-0.2-0.1-0.2-0.1,0C47.2,18.1,47.7,18.3,47.8,18.1L47.8,18.1L47.8,18.1z"/>
<path class="st1" d="M45.6,18.1c0.2,0,0.2,0.1,0.3,0.1c0-0.1,0-0.2,0-0.3c-0.1,0-0.1,0-0.2,0C45.7,18,45.7,18,45.6,18.1L45.6,18.1
	L45.6,18.1z"/>
<path class="st1" d="M48.6,18c0.3,0,0.5,0,0.5-0.2C48.9,17.8,48.7,17.9,48.6,18L48.6,18L48.6,18z"/>
<path class="st1" d="M44.3,18c0-0.1,0-0.1,0.1-0.1c0-0.1,0-0.2-0.2-0.2C44.2,17.8,44.2,18,44.3,18L44.3,18L44.3,18z"/>
<path class="st1" d="M53.2,17.7c0-0.1-0.2-0.1-0.2,0C53.1,17.8,53.1,17.8,53.2,17.7L53.2,17.7L53.2,17.7z"/>
<path class="st1" d="M45.6,17.5c-0.1,0-0.2,0-0.2,0.1C45.5,17.6,45.6,17.6,45.6,17.5L45.6,17.5L45.6,17.5z"/>
<path class="st1" d="M45,17.6c0.1,0,0.1,0,0.2,0c0-0.1,0-0.1,0-0.2c-0.1,0-0.1,0-0.2,0C45,17.5,45,17.6,45,17.6L45,17.6L45,17.6z"/>
<path class="st1" d="M42.7,17.8c0.3,0,0.3,0.2,0.6,0.2c0-0.5,0.1-0.5-0.1-0.8c-0.1,0-0.3,0-0.4,0C42.7,17.4,42.7,17.6,42.7,17.8
	L42.7,17.8L42.7,17.8z"/>
<path class="st1" d="M52,17.1c-0.1,0-0.3,0-0.3,0.1C51.8,17.2,52,17.2,52,17.1L52,17.1L52,17.1z"/>
<path class="st1" d="M59.6,74.8c0,0.2-0.2,0.2-0.2,0.3c0.1,0,0.2,0.1,0.4,0.1C59.9,75,59.8,74.8,59.6,74.8L59.6,74.8L59.6,74.8z"/>
<path class="st1" d="M59.3,75.4c-0.4,0-0.7,0.2-0.6,0.6C59.1,76,59.3,75.8,59.3,75.4L59.3,75.4L59.3,75.4z"/>
<path class="st1" d="M70.7,37L70.7,37c0,0,0.1,0,0.1-0.1C70.8,36.9,70.7,37,70.7,37L70.7,37z"/>
<path class="st1" d="M70.5,36.3L70.5,36.3c-0.2,0.5,0.9,0.3,0.5,0C70.9,36.6,70.7,36.2,70.5,36.3L70.5,36.3z"/>
<path class="st1" d="M70.8,35.3L70.8,35.3c0,0.1-0.1,0.2-0.1,0.3c0.1,0,0.2,0,0.3,0c0-0.1,0-0.2,0-0.3C71,35.3,70.9,35.3,70.8,35.3
	L70.8,35.3z"/>
<path class="st1" d="M26.1,34.2L26.1,34.2c0.1,0,0.2,0,0.2-0.1C26.3,34.1,26.2,34.1,26.1,34.2L26.1,34.2z"/>
<path class="st1" d="M35,26.6L35,26.6c0.1,0,0.2,0,0.2-0.1C35.1,26.5,35,26.5,35,26.6z"/>
</svg>
