<?xml version="1.0" encoding="utf-8"?>
<!-- Generator: Adobe Illustrator 21.1.0, SVG Export Plug-In . SVG Version: 6.00 Build 0)  -->
<svg version="1.1" id="Gear" xmlns="http://www.w3.org/2000/svg" xmlns:xlink="http://www.w3.org/1999/xlink" x="0px" y="0px"
	 viewBox="0 0 100 100" style="enable-background:new 0 0 100 100;" xml:space="preserve">
<style type="text/css">
	.st0{fill:#AAAAAB;}
</style>
<g>
	<path class="st0" d="M65.1,20.1c0.1,0,0.1,0.1,0.2,0.1C65.2,20.2,65.2,20.2,65.1,20.1z"/>
	<path class="st0" d="M75,27.3c-0.2-0.2-0.3-0.1-0.4,0c0,0,0.1,0.1,0.1,0.1C74.8,27.4,74.9,27.3,75,27.3z"/>
	<path class="st0" d="M73.3,70.9c0,0.1,0,0.3,0,0.5C73.5,71.1,73.5,71.1,73.3,70.9z"/>
	<path class="st0" d="M75.4,27.1c-0.1,0-0.2,0-0.3-0.1c0,0,0,0.1,0,0.1C75.2,27.1,75.3,27.2,75.4,27.1z"/>
	<path class="st0" d="M74.8,27.5C74.8,27.5,74.8,27.5,74.8,27.5L74.8,27.5C74.8,27.5,74.8,27.5,74.8,27.5z"/>
	<path class="st0" d="M36.9,18.2C36.9,18.2,36.9,18.2,36.9,18.2C36.9,18.2,36.9,18.2,36.9,18.2c0-0.2-0.1-0.3-0.2-0.3c0,0,0,0,0,0
		c0,0,0,0,0,0C36.6,18,36.7,18.2,36.9,18.2z"/>
	<polygon class="st0" points="74.8,27.5 74.8,27.5 74.8,27.5 	"/>
	<path class="st0" d="M79.1,75.3L79.1,75.3c0.1,0,0.1,0,0.1,0C79.2,75.3,79.2,75.3,79.1,75.3C79.1,75.3,79.1,75.3,79.1,75.3z"/>
	<path class="st0" d="M80.2,74.7c0.1-0.2,0.2-0.2,0.4-0.2l1.7-2.3c0.1-0.2,0.1-0.4,0-0.6l-0.2-0.3c0,0-0.1,0-0.2,0
		c-0.1,0-0.3-0.1-0.4-0.1c-0.2,0-0.3-0.3-0.3-0.4c0-0.1,0.1-0.2,0.2-0.3l-1-1.3c0.7-1.2,1.4-2.4,2-3.6c0,0-0.1,0.1-0.1,0.1
		c0,0,0-0.1-0.1-0.1c0.1-0.1,0.2-0.2,0.3-0.2c0.3-0.7,0.6-1.4,0.9-2.1l1.2,0c0,0,0-0.1,0.1-0.1c0.1,0,0.3,0.1,0.4,0.1l1.4,0
		c0.2,0,0.4-0.1,0.5-0.4l1.1-3.7c0.1-0.2,0-0.4-0.2-0.6L85.3,57c0.4-2,0.6-4.2,0.7-6.3c0-0.3,0-0.6,0-0.9l0.7-0.3
		c0,0-0.1-0.1-0.2-0.1c0.1,0,0.2,0,0.3,0c0,0,0,0,0,0l0.4-0.2c0,0,0,0,0,0c0,0,0.1,0,0.1,0c0,0,0,0,0,0l1.1-0.4c0,0,0-0.1,0-0.1
		c0.1-0.1,0.3-0.2,0.4-0.2c0,0,0,0,0,0c0.1-0.1,0.2-0.3,0.2-0.4l-0.4-3.8c0-0.2-0.2-0.4-0.4-0.4l-3-0.5c-0.4-2.3-1.1-4.5-1.9-6.7
		l2.2-2.1c0.1-0.1,0.1-0.2,0.1-0.4c0,0-0.1,0-0.1,0c0-0.1,0-0.2,0.1-0.2l-1.7-3.3c-0.1,0-0.2,0.1-0.2,0c-0.1,0-0.1-0.1-0.1-0.2
		c0,0,0.1-0.1,0.1,0c0,0,0.1,0.1,0.1,0.1l0,0c-0.1-0.2-0.3-0.3-0.4-0.3c0,0,0,0-0.1,0c0,0,0,0,0,0c0,0,0,0,0,0l-0.3,0.1
		c0,0.2,0.1,0.3,0.1,0.5c0,0.1,0.2,0.2,0.3,0.3c-0.2,0.3-0.4,0.5-0.7,0.7c-0.4-0.3-0.7-0.7-1-1c0-0.1,0-0.1-0.1-0.2L80.7,31
		c0.1,0.1,0.2,0.2,0.2,0.3c0,0.1,0,0.1,0,0.2c0,0-0.1,0-0.1,0c0,0-0.1-0.1-0.1-0.2c0-0.1-0.1-0.1-0.1-0.2c-0.1-0.1,0-0.2,0.1-0.2
		l-0.2,0c-1.2-1.9-2.5-3.6-4-5.2l1.4-2.7c0.1-0.2,0.1-0.4-0.1-0.6l-1.5-1.4c0,0.2-0.1,0.4-0.1,0.5c-0.1,0-0.1,0-0.1,0
		c-0.4-0.1-0.5-0.1-0.3-0.5c0.1-0.1,0.1-0.2,0.2-0.3l-0.4-0.3c0,0,0,0,0,0c0,0-0.1,0-0.1,0c0-0.1,0-0.1,0-0.2L75,19.9
		c-0.2-0.2-0.4-0.2-0.6-0.1l-2.6,1.6c-1.1-0.8-2.3-1.6-3.5-2.3c0,0.2,0.3,0.4,0,0.7c-0.1-0.2-0.3-0.3-0.3-0.4c0-0.2-0.3,0-0.4-0.2
		c0.2,0,0.4-0.1,0.6-0.1c-0.6-0.3-1.2-0.7-1.8-1c-0.1,0.1-0.2,0.1-0.3,0.1C66,18,65.9,17.9,66,17.7c0-0.1,0.1-0.2,0.2-0.2l0.3-2.7
		c0-0.2-0.1-0.4-0.3-0.5L64,13.5c0,0-0.1,0-0.2,0c-0.1,0-0.1-0.1-0.1-0.1L62.6,13c-0.2-0.1-0.4,0-0.6,0.2l-1.8,2.4
		c-1.6-0.5-3.3-0.8-5-1.1c0,0,0,0,0,0c-0.6-0.1-1.3-0.2-2-0.2l-0.1-0.5c0,0.2-0.1,0.2-0.8,0.3c0.3-0.4,0.4-0.5,0.7-0.4l-0.7-2.3
		c-0.1-0.2-0.3-0.4-0.5-0.4h-3.8c-0.2,0-0.4,0.1-0.5,0.4l-0.5,1.6c0.1,0.1,0.1,0.1,0.1,0.2c0,0.2,0,0.3,0.1,0.5
		c-0.1,0.1-0.2,0.1-0.3,0.2c-0.1,0-0.1,0-0.2,0.1l-0.1,0.3c-2.4,0.2-4.7,0.7-7,1.3l-0.5-0.7c0,0,0,0-0.1,0.1c0-0.1,0-0.1,0-0.2
		c0,0,0,0,0,0L38,13.1c0,0,0,0-0.1,0c0,0,0,0.1,0.1,0.1c-0.2,0.1-0.3,0.1-0.5-0.1c-0.1-0.1-0.1-0.1-0.2-0.2l-2,0.8
		c0,0,0,0.1,0.1,0.1c-0.1,0-0.1,0.1-0.2,0.1c-0.1,0.1-0.2,0.2-0.2,0.2c0,0.4-0.2,0.7-0.6,0.8c0,0-0.1,0.1-0.1,0.2
		c-0.1-0.2-0.2-0.2-0.3-0.3c-0.1-0.1-0.1-0.3-0.3-0.2c-0.1,0.1-0.2,0.2-0.3,0.3l0.3,2.6c0.1,0,0.2,0.1,0.2,0.1
		c0.2,0,0.4,0.3,0.6,0.1c0.2,0.1,0.3,0.2,0.5,0.3c-0.1,0.1-0.1,0.2-0.2,0.3c0,0.2,0.5,0.3,0.9,0.2c0,0.1,0.1,0.1,0.1,0.2
		c0,0,0,0,0.1,0c0-0.1,0-0.2,0-0.3c0.1,0,0.1,0,0.2,0c0,0,0,0,0,0l0,0c0,0,0,0,0,0c0,0,0,0,0,0c-0.2-0.1-0.2-0.3-0.2-0.4
		c0.2,0,0.4-0.1,0.6-0.1c0,0,0,0,0,0c0,0,0,0,0,0c0.3-0.2,0.3,0.1,0.5,0.2c0,0,0,0.1,0,0.1c-0.1,0-0.2,0.1-0.3,0.1c0,0,0,0,0,0
		c0,0,0,0,0,0c0,0.1-0.1,0.3-0.1,0.4c-0.2-0.1-0.3-0.1-0.5-0.2c0,0,0,0,0,0c0,0.1,0,0.3-0.1,0.5c0.1,0.1,0.2,0.3,0.3,0.4
		c0,0,0,0-0.1,0.1c-0.1,0-0.2-0.1-0.2-0.1c0-0.3-0.2-0.3-0.4-0.2c0-0.1,0-0.2,0-0.3c0,0-0.1,0-0.1,0c0,0.1-0.1,0.3,0,0.3
		c0.2,0.2,0.2,0.5,0.2,0.8c-0.8,0.2-0.8,0.2-0.9-0.2c0.1,0,0.2,0,0.4,0c-0.2-0.2-0.2-0.5-0.5-0.5c0,0-0.1-0.1-0.1-0.1
		c0.1-0.2-0.1-0.2-0.2-0.3c0-0.1-0.3-0.1-0.1-0.3c-0.1-0.1-0.2-0.2-0.3-0.2c-0.2-0.1-0.3-0.1-0.3-0.4c0,0,0,0,0,0l0,0.1
		c0,0-0.1,0-0.1,0.1c0,0.1,0,0.2,0.1,0.2c-0.2,0.1-0.3,0.3-0.4,0.4c-0.2-0.1,0-0.3,0-0.5c-1.8,1-3.6,2-5.2,3.3l-2.6-1.6
		c-0.2-0.1-0.4-0.1-0.6,0.1L22.7,22c0,0,0,0,0,0c0,0,0,0.1,0,0.1c0,0,0,0-0.1,0l-0.4,0.4c-0.2,0.2-0.2,0.4-0.1,0.6l1.4,2.7
		c-1,1.1-1.9,2.3-2.8,3.5c0.1,0,0.2,0.1,0.3,0.1c0.1,0.3-0.1,0.4-0.3,0.4c-0.1,0-0.2,0.1-0.3,0c-0.3,0.4-0.6,0.9-0.9,1.3l-0.2,0
		c0,0.2,0,0.4,0,0.7c-0.2-0.2-0.3-0.3-0.3-0.6c0-0.1,0-0.1,0-0.2l-1.6-0.3c0,0,0,0,0,0c0,0-0.1,0-0.1,0c0,0,0,0,0,0l-0.8-0.2
		c0,0-0.1,0-0.1,0c0,0.1,0.1,0.1,0.1,0.2c-0.1,0.1-0.3,0.1-0.4,0.2c0,0-0.1,0-0.2,0l-1.7,3.3c-0.1,0.2-0.1,0.4,0.1,0.6l0.7,0.7
		c0,0,0,0,0,0c0,0,0,0,0,0l1.5,1.4c-0.6,1.5-1.1,3-1.5,4.6c0.1,0,0.3-0.1,0.4-0.2c0.2,0.3,0.2,0.3-0.2,0.7c-0.1-0.1-0.1-0.3-0.2-0.4
		c0,0,0,0,0,0c-0.2,0.6-0.3,1.3-0.4,1.9l-3,0.5c-0.2,0-0.4,0.2-0.4,0.4l-0.4,3.8c0,0.2,0.1,0.4,0.3,0.5l2,0.8c0,0-0.1-0.1-0.2-0.1
		c0.3-0.2,0.3,0,0.4,0.1c0,0-0.1,0-0.1,0l0.7,0.3c0,0.4,0,0.7,0,1.1c0.1,0,0.1,0,0.2,0c0.1,0.1,0.3,0.2,0.4,0.3
		c-0.2,0.2-0.4,0.2-0.6,0.2c0,0,0,0-0.1-0.1c0,1.4,0.2,2.7,0.3,4c0.1-0.1,0.2-0.2,0.2-0.3c0.1,0.1,0.2,0.1,0.3,0.2
		c-0.1,0.1-0.1,0.2-0.2,0.3c-0.1,0-0.2,0-0.3-0.1c0.1,0.5,0.2,1.1,0.3,1.6l-1.2,0.7c0.1,0,0.1,0,0.2,0.1c0,0,0,0.1,0,0.1
		c-0.1,0-0.2-0.1-0.3-0.1l-0.8,0.5c0,0,0,0.1,0,0.1c0,0-0.1,0-0.1,0l-0.3,0.2c-0.2,0.1-0.3,0.3-0.2,0.6l0.7,2.3c0.1,0,0.2,0,0.3-0.1
		c0.3-0.1,0.3-0.1,0.5,0.1c0.1,0,0.2-0.1,0.3-0.1c0,0.4,0,0.4-0.4,0.4c-0.2,0-0.4-0.1-0.7-0.2c0,0,0,0,0,0l0.3,1.2
		c0.1,0.2,0.3,0.4,0.5,0.4l3,0c0.8,2.1,1.8,4.1,3,6l-1.8,2.4c0,0,0,0,0,0c-0.1,0.1-0.1,0.2-0.2,0.2c0,0.1,0,0.3,0.1,0.4l2.3,3.1
		c0.1,0.2,0.4,0.2,0.6,0.2l2.8-1.1c1.5,1.6,3.1,3.1,4.8,4.4l-0.8,2.7c0,0.1,0,0.2-0.1,0.3c0,0.2,0,0.4,0.2,0.5l1.5,0.9
		c0-0.4,0.1-0.6,0.4-0.7c0.2,0,0.3,0.1,0.3,0.3c-0.1,0.3-0.2,0.4-0.5,0.5l1.5,1c0.2,0.1,0.4,0.1,0.6-0.1l0.1-0.1
		c-0.1,0-0.2-0.1-0.3-0.1c0.1-0.1,0.2-0.3,0.4-0.2c0.1,0,0.1,0.1,0.1,0.1l0.6-0.5c-0.1-0.1-0.2-0.1-0.3-0.2c0.1,0,0.1-0.1,0.2-0.1
		c0-0.1-0.1-0.3-0.1-0.5c0.2,0,0.5,0.3,0.5,0.4c0,0.1-0.1,0.2-0.2,0.3l1.3-1.2c0,0,0,0,0.1,0c0,0,0,0,0,0c0.1-0.1,0-0.4,0.3-0.3
		c0,0,0.1,0,0.1-0.1c0-0.2,0.2-0.2,0.4-0.2c0.4,0,0.5,0.1,0.6,0.5c0.1,0,0.2-0.1,0.3-0.1c0.3,0.2,0.4,0.4,0.3,0.6
		c0,0.1-0.1,0.2-0.2,0.2c-0.1,0.1-0.2,0.1-0.2,0.2c0.1,0.1,0.3,0.1,0.4,0.2c0-0.1,0-0.1,0.1-0.2c0.1,0.1,0.1,0.2,0.1,0.3
		c1.3,0.5,2.6,1,4,1.4l0,0c0.1-0.1,0.2,0,0.3,0.1c0.1,0.2,0,0.3-0.2,0.3l0.2,2.6c0,0.2,0.2,0.4,0.4,0.5l0.1,0
		c0.1-0.1,0.2-0.1,0.2-0.2c0,0,0,0,0.1,0.1c-0.1,0.1-0.1,0.1-0.2,0.2l3.6,0.7c0.2,0,0.4-0.1,0.5-0.3l0.4-0.9c0,0,0,0,0,0
		c-0.2-0.1-0.2-0.2-0.1-0.3c0.1-0.2,0.1-0.4,0.4-0.5c0,0,0.1,0.1,0.1,0.1l0.5-1.1c1,0.1,2,0.2,3,0.2c1.5,0,2.9,0,4.3-0.2l0.4,0.8
		c0,0,0.1,0,0.1,0c0,0-0.1,0-0.1,0.1l0.9,1.9c0.1,0.2,0.3,0.3,0.5,0.3l3.3-0.6c0,0,0.1-0.1,0.1-0.1c0,0,0.1,0.1,0.1,0.1l0.3,0
		c0,0,0.1,0,0.1,0c0-0.1-0.1-0.2-0.4-0.4c0.1-0.2,0.2-0.4,0.4-0.7c0.1,0.2,0.1,0.4,0.2,0.5c0,0.1,0.1,0.2,0.1,0.2c0,0,0-0.1,0-0.1
		l0.2-3c2.2-0.6,4.3-1.5,6.3-2.5l2.3,2.1c0.2,0.2,0.4,0.2,0.6,0.1l3.3-2c0.2-0.1,0.3-0.4,0.2-0.6l-0.9-2.9c1.7-1.3,3.4-2.8,4.8-4.4
		l1.3,0.5c0,0,0,0,0,0c0.2-0.4,0.5-0.6,1-0.5c0.1,0,0.2,0,0.3,0.1c0.1,0,0.2,0.1,0.2,0.2c0.1,0.1,0.2,0.3,0.3,0.5
		c0,0.1-0.1,0.3,0,0.4c0,0,0,0,0,0c0.1,0,0.1-0.1,0.2-0.1l0.3-0.4C80.3,74.8,80.3,74.8,80.2,74.7z M81,72.2c0.2,0,0.4,0,0.5,0
		c0.1,0,0.2,0.2,0.2,0.4c0,0.1,0,0.2,0,0.3c-0.3,0-0.5-0.2-0.7-0.4C80.8,72.3,80.9,72.2,81,72.2z M87.7,44.9
		c0.2,0.2,0.1,0.5,0.1,0.7c0,0.2-0.2,0.2-0.5,0.1C87.3,45.3,87.4,45,87.7,44.9z M87.2,47.2c0.1,0,0.2,0,0.2,0.1
		c0.1,0.1,0.1,0.3,0.1,0.4c0,0.1-0.1,0.2-0.2,0.2c0-0.2-0.1-0.3-0.1-0.4C87.2,47.3,87.2,47.2,87.2,47.2z M87.1,45.5
		c0,0.1,0,0.2-0.1,0.3C86.9,45.6,86.9,45.6,87.1,45.5z M84,35.4c0,0.2-0.2,0.2-0.4,0.2c0,0-0.1-0.1-0.1-0.1c0.1-0.1,0.2-0.2,0.2-0.3
		C84,35.2,84.1,35.2,84,35.4z M83.9,31.6c0,0.2,0,0.5,0,0.7c-0.1-0.1-0.2-0.1-0.3-0.2c0-0.1,0-0.2,0-0.3
		C83.7,31.8,83.8,31.7,83.9,31.6z M83.7,33.8c0,0.2,0,0.3,0,0.4c0,0-0.1,0-0.1,0c-0.1-0.1-0.1-0.2-0.1-0.2
		C83.5,33.9,83.6,33.9,83.7,33.8z M35.5,16.6c-0.1,0.1-0.2,0.1-0.2,0.1c0,0-0.1-0.1-0.1-0.1c0-0.1,0.1-0.1,0.1-0.1
		C35.3,16.5,35.3,16.5,35.5,16.6z M35.3,14.9C35.3,15,35.3,15,35.3,14.9c0,0.1-0.1,0.2-0.2,0.3c0,0,0-0.1-0.1-0.1
		C35.1,15.1,35.2,15,35.3,14.9z M34.1,16.5c0.2-0.3,0.3,0,0.5-0.1c0,0.1,0,0.1,0,0.2C34.4,16.5,34.3,16.5,34.1,16.5z M35.5,17.3
		c-0.1,0.2-0.5,0.4-0.7,0.3c-0.1-0.1-0.2-0.1-0.3-0.2c0-0.1,0-0.3,0.1-0.4c0.2-0.1,0.4-0.1,0.5-0.1c0,0,0,0,0,0
		C35.5,17,35.6,17.1,35.5,17.3z M36.1,16.2C36.1,16.1,36,16,36,16c0,0,0.1-0.1,0.1-0.1c0.1,0,0.1,0.1,0.2,0.1
		C36.2,16,36.2,16.1,36.1,16.2z M15.6,34.8c-0.1-0.1-0.2-0.2-0.2-0.3c0,0,0-0.2,0.1-0.2c0.1,0,0.2,0,0.2,0c0.1,0.1,0.1,0.2,0.3,0.4
		C15.7,34.8,15.6,34.8,15.6,34.8z M11.6,47.6c-0.1-0.1-0.3-0.2-0.4-0.3c0.1-0.1,0.1-0.2,0.1-0.3C11.7,47.2,11.7,47.3,11.6,47.6z
		 M12.3,44.7c-0.2,0.1-0.3,0.1-0.4,0.1C11.9,44.6,11.9,44.6,12.3,44.7z M12,46.9c0.1-0.1,0.3-0.2,0.4,0C12.2,47,12.1,46.9,12,46.9z
		 M14.4,49.4c0-0.1,0-0.1,0.1-0.3c0.1,0.1,0.1,0.2,0.2,0.3C14.5,49.4,14.4,49.4,14.4,49.4z M13,62.6C13,62.6,13,62.6,13,62.6
		c0.1-0.1,0.2-0.1,0.2-0.1c0,0,0,0.1,0,0.1C13.2,62.6,13.1,62.6,13,62.6z M13.5,59.9c0.4-0.2,0.3,0.1,0.4,0.2
		C13.6,60.2,13.7,60,13.5,59.9z M14.2,60.9c-0.1,0.1-0.1,0.2-0.2,0.3c-0.1-0.1-0.1-0.1-0.1-0.1C13.9,60.9,13.9,60.8,14.2,60.9z
		 M14.3,62.6c-0.1-0.1-0.2-0.1-0.4-0.2c0.3-0.2,0.3-0.2,0.8-0.2C14.7,62.7,14.6,62.7,14.3,62.6z M81.7,63.8
		C81.6,63.7,81.6,63.7,81.7,63.8c-0.1-0.1,0-0.2,0-0.3c0,0,0,0,0.1,0C81.7,63.6,81.7,63.7,81.7,63.8z M83.3,60.9
		c0-0.1-0.1-0.1,0-0.1c0-0.1,0.1-0.1,0.1-0.2c0,0,0,0,0.1,0C83.4,60.7,83.4,60.8,83.3,60.9z M83.1,60.5c0.1-0.2,0.1-0.2,0.2,0
		C83.2,60.5,83.1,60.5,83.1,60.5z M83.5,54.1c-0.1-0.2-0.2-0.3,0-0.5c0.2-0.1,0.3-0.2,0.5,0C83.9,53.9,83.8,54.1,83.5,54.1z
		 M83.9,49.2c0.3,0.2,0.2,0.3,0.1,0.4C84,49.5,84,49.4,83.9,49.2z M84,60.5c0.1-0.4,0.1-0.4,0.4-0.3C84.2,60.3,84.1,60.4,84,60.5z
		 M84.5,52.3c-0.1,0-0.2,0-0.2,0c0-0.1,0.1-0.3,0.1-0.4C84.6,52,84.6,52.2,84.5,52.3z M84.5,57.9c0,0,0,0.1-0.1,0.1
		c-0.1,0-0.1-0.1-0.2-0.1c0,0,0,0,0-0.1C84.4,57.9,84.4,57.9,84.5,57.9z M84.3,50.5c-0.3-0.1-0.2-0.3-0.1-0.5
		C84.5,50.1,84.4,50.3,84.3,50.5z M84.5,63.1C84.5,63.1,84.5,63.1,84.5,63.1c-0.1-0.1,0-0.1,0-0.1C84.5,63,84.6,63,84.5,63.1
		C84.6,63.1,84.6,63.1,84.5,63.1z M85.4,62.3c-0.1,0-0.2-0.1-0.2-0.2c0,0,0,0,0,0c0,0,0,0,0,0c0,0,0,0,0,0c0,0.3,0,0.3-0.3,0.3
		c0.1-0.2,0.2-0.3,0.3-0.3c0,0,0,0,0,0c0,0,0,0,0,0c0.2-0.2,0.3,0,0.5,0C85.6,62.3,85.5,62.3,85.4,62.3z M85.5,60.3
		c-0.1,0-0.2,0-0.3,0.1C85.3,60.2,85.4,60.3,85.5,60.3z M85.5,60c0.1,0,0.1-0.1,0.2-0.1c0,0,0,0,0,0.1c0,0.1-0.1,0.1-0.1,0.2
		C85.5,60.1,85.5,60.1,85.5,60z M85.5,61.1C85.5,61.1,85.5,61.1,85.5,61.1c0-0.2,0.1-0.2,0.1-0.3C85.7,61,85.7,61.1,85.5,61.1z
		 M87.1,59c0.1,0,0.1,0,0.2,0c0,0,0,0.1,0,0.1C87.2,59.1,87.1,59.1,87.1,59C87,59.1,87.1,59.1,87.1,59z M87,58.8
		C87,58.8,87,58.9,87,58.8c-0.1,0.1-0.1,0.1-0.2,0.2c0,0,0-0.1,0-0.1C86.8,58.8,86.9,58.8,87,58.8z M86.6,62.7
		c-0.1,0-0.3,0.1-0.5,0.1c0-0.3-0.2-0.6,0-1c0.1,0,0.1,0,0.2,0c0,0,0.1,0.1,0.1,0.1C86.4,62.2,86.7,62.4,86.6,62.7z M86.3,61.6
		c0,0-0.1-0.1-0.1-0.1c0,0,0.1-0.1,0.1-0.2c0.1,0.1,0.1,0.1,0.1,0.2C86.4,61.5,86.3,61.6,86.3,61.6z M85.5,58.6
		c0-0.1-0.1-0.2-0.1-0.4C85.6,58.4,85.6,58.4,85.5,58.6z M86.1,58.7c0.1,0.1,0.1,0.3,0.2,0.4c0.1,0.1,0.1,0.3-0.1,0.3
		C86,59.5,86,59.3,86,59.2c-0.3,0.2-0.4,0.2-0.7-0.2C85.6,58.9,85.8,58.8,86.1,58.7z M85.3,54.2c-0.1-0.3,0.1-0.4,0.2-0.4
		c0,0,0.1,0,0.1,0.1C85.5,53.9,85.4,54,85.3,54.2z M86.8,47.4c0,0-0.1,0-0.1-0.1c0-0.1,0-0.1,0.1-0.2c0.1,0.1,0.1,0.1,0.1,0.2
		C86.9,47.3,86.8,47.4,86.8,47.4z M86.7,44.2c-0.1,0.3-0.2,0.3-0.5,0.3C86.4,44.4,86.5,44.3,86.7,44.2z M86.6,45.6
		c0.1,0,0.2,0.1,0.2,0.2c0,0,0,0.2-0.1,0.2c-0.2,0.1-0.5,0.2-0.7,0C86.1,45.6,86.4,45.6,86.6,45.6z M86.1,49.4
		c-0.2,0.2,0,0.5-0.3,0.6c-0.2-0.1-0.1-0.2,0-0.3L86.1,49.4z M85.5,47.2c-0.1,0-0.2,0-0.4-0.1C85.3,47,85.3,47,85.5,47.2z
		 M85.1,48.9c0.1-0.1,0.3,0,0.3,0.1c-0.1,0.3,0.1,0.4,0.3,0.6c-0.2,0.1-0.4,0.2-0.6,0.1c-0.2,0-0.3-0.2-0.4-0.4
		C84.9,49.2,85,49.1,85.1,48.9z M84.9,51.8c0.1,0,0.1,0.1,0.2,0.1c0,0-0.1,0.1-0.1,0.2c-0.1-0.1-0.2-0.1-0.2-0.2
		C84.7,51.9,84.8,51.8,84.9,51.8z M84.5,47.9c0.1,0,0.1,0.1,0.2,0.1c-0.1,0.1-0.2,0.1-0.2,0.1C84.5,48.1,84.4,48.1,84.5,47.9
		C84.4,48,84.4,47.9,84.5,47.9z M84.3,39.8c0,0,0,0.1,0,0.1c-0.1,0-0.2,0-0.3-0.1C84.1,39.8,84.2,39.7,84.3,39.8z M83.9,48.2
		c0.1,0,0.2,0.1,0.3,0.2c-0.1,0.2,0.1,0.4-0.2,0.6c-0.1-0.1-0.4,0-0.4-0.3C83.6,48.4,83.7,48.3,83.9,48.2z M82.6,32.6
		C82.5,32.6,82.5,32.6,82.6,32.6c-0.1,0.1-0.2,0.1-0.2,0c0,0,0-0.1-0.1-0.2C82.5,32.4,82.5,32.4,82.6,32.6z M81.6,33.4
		c0,0,0,0.1-0.1,0.1c-0.1,0-0.1-0.1-0.2-0.1c0,0,0-0.1,0.1-0.1C81.4,33.4,81.5,33.4,81.6,33.4z M81.3,33.1c0,0,0,0.1,0,0.1
		c-0.1,0-0.2,0.1-0.4,0.1c0,0,0-0.1,0-0.1C81.1,33.2,81.2,33.1,81.3,33.1z M79.2,31.9c0.2,0.1,0.3,0.1,0.4,0.2
		c-0.2,0.2-0.4,0.5-0.6,0.7c0-0.1-0.1-0.2-0.1-0.3C79,32.2,79.4,32.3,79.2,31.9z M79.5,29.8C79.5,29.9,79.4,29.9,79.5,29.8
		c-0.3,0-0.5-0.2-0.7-0.3c0.2-0.1,0.3-0.2,0.4-0.2C79.3,29.5,79.4,29.7,79.5,29.8z M79.1,29.2c-0.1,0-0.2,0-0.4,0
		C78.9,29,78.9,29,79.1,29.2z M78.4,28.8c-0.2,0.3-0.4,0-0.6,0.1C78,28.8,78.1,28.6,78.4,28.8z M76.7,26.1c-0.1,0.1-0.2,0.1-0.4,0.2
		C76.4,26.1,76.4,26.1,76.7,26.1z M76.3,22.3C76.3,22.3,76.4,22.3,76.3,22.3c0.1,0.1,0,0.2,0,0.3c0,0-0.1-0.1-0.1-0.1
		C76.2,22.4,76.2,22.3,76.3,22.3z M76.1,26.1c0,0.1,0,0.1,0,0.1c0,0.1-0.1,0.1-0.3,0C76,26.2,76,26.1,76.1,26.1z M75.8,29.2
		c0.1-0.1,0.2,0,0.3,0.1c0.1,0.2,0.2,0.3,0.3,0.5c-0.2,0-0.3,0-0.4,0c-0.1-0.1-0.1-0.2-0.2-0.3C75.7,29.4,75.7,29.3,75.8,29.2z
		 M75.4,25.6c-0.1,0-0.2-0.1-0.3-0.1C75.3,25.3,75.3,25.3,75.4,25.6z M75.3,26.3c-0.2,0-0.2,0-0.3-0.2
		C75.1,26.1,75.2,26.2,75.3,26.3z M74.3,24.4c-0.1-0.1-0.2-0.2-0.3-0.3c-0.1-0.1-0.2-0.1-0.4-0.2c0-0.1,0-0.1,0-0.3
		C73.9,23.9,74.4,23.8,74.3,24.4z M74.2,24.7c-0.2,0-0.2-0.1-0.2-0.2c0,0,0.1,0,0.1,0C74.1,24.5,74.1,24.6,74.2,24.7z M73.7,21.7
		c0.1,0.2,0.1,0.3,0.2,0.4c-0.1,0.1-0.2,0.2-0.4,0.3c0.1,0,0.2,0.1,0.3,0.1c0,0.1,0,0.1,0,0.3c-0.2-0.2-0.5-0.3-0.5-0.7
		C73.3,22,73.5,21.9,73.7,21.7z M71.2,22.7c-0.1-0.1-0.1-0.2-0.1-0.3C71.2,22.5,71.4,22.6,71.2,22.7z M70.2,22.8c0.1,0,0.1,0,0.2,0
		c0,0,0,0.1,0,0.1c-0.1,0.1-0.2,0.1-0.2,0.2C70.1,22.9,70.1,22.8,70.2,22.8z M69.9,20.3c0.1,0,0.2,0.1,0.2,0.2
		c0,0.1-0.1,0.1-0.2,0.2c-0.1-0.1-0.1-0.2-0.1-0.3C69.7,20.4,69.8,20.3,69.9,20.3z M69.2,21.9c0,0.1-0.1,0.2-0.1,0.4
		c-0.1-0.2-0.1-0.3-0.2-0.5C69,21.8,69.1,21.9,69.2,21.9z M68.6,20.2c0,0.2,0,0.3,0,0.5C68.2,20.4,68.2,20.4,68.6,20.2z M66.4,19.1
		c0.2,0.1,0.2,0.3,0,0.4C66.2,19.3,66.2,19.2,66.4,19.1z M64.7,17.8c-0.3,0.3-0.6,0.1-0.9,0.1c0.1-0.1,0.1-0.2,0.2-0.3
		c-0.1,0-0.2,0-0.3,0c0-0.1,0-0.1,0-0.1c0.5-0.6,0.8-0.7,1.3-0.7C64.5,17,64.6,17.4,64.7,17.8z M63.7,14.9c0.3-0.5,0.4-0.5,0.7-0.3
		c-0.2,0.2-0.4,0.2-0.5,0.5c0,0-0.2,0.1-0.3,0.1c0,0.1,0,0.2,0,0.3c-0.1,0-0.1,0-0.1,0c-0.2-0.1-0.2-0.2-0.1-0.4
		C63.2,15,63.1,15.3,63,15C63.5,14.7,63.5,14.7,63.7,14.9z M62.5,16.4c0.1,0.1,0.1,0.3,0,0.3c-0.2,0.1-0.2-0.1-0.4-0.2
		C62.3,16.5,62.4,16.4,62.5,16.4z M60.9,16.7c-0.2,0.1-0.4,0.1-0.6,0.2c0,0,0-0.1,0-0.1C60.4,16.6,60.6,16.5,60.9,16.7z M55.7,16
		c-0.2,0-0.3-0.1-0.4-0.1C55.5,15.7,55.6,15.7,55.7,16z M54.5,16.2c0,0,0.1,0,0.1,0.1c0,0,0,0.1,0,0.1c-0.1,0-0.2,0-0.3,0
		c0,0,0-0.1,0-0.1C54.3,16.3,54.4,16.3,54.5,16.2z M54,15.9c0.2,0.2,0,0.4-0.2,0.6c-0.1-0.1-0.2-0.2-0.3-0.3
		C53.7,16,53.8,15.9,54,15.9z M53.2,15.4c0.1,0,0.2,0,0.2,0c0,0,0,0.1,0,0.1C53.3,15.5,53.3,15.5,53.2,15.4
		C53.2,15.5,53.2,15.4,53.2,15.4z M53.1,17c-0.2,0.3-0.2,0.3-0.5,0.1C52.8,17.1,52.9,17.1,53.1,17z M52.4,19.1c-0.1,0-0.2,0-0.4,0
		C52.2,18.9,52.2,18.9,52.4,19.1z M51.5,13.6c-0.1,0.4-0.1,0.4-0.5,0.2C51.2,13.8,51.4,13.7,51.5,13.6z M50.8,14.1
		c0,0,0.1,0,0.1-0.1c0,0.1,0,0.1-0.1,0.2c0,0-0.1,0-0.2,0C50.7,14.2,50.7,14.1,50.8,14.1z M50.8,15.3c0.1-0.1,0.2-0.1,0.4-0.1
		c0.1,0,0.2,0.1,0.2,0.2c0,0.3,0,0.6,0,0.9c-0.3,0-0.5,0-0.7-0.1C50.4,15.9,50.5,15.6,50.8,15.3z M50.4,12.2c-0.1,0.3-0.3,0-0.5,0.2
		c0,0,0-0.1,0-0.1C50.1,12.2,50.3,12.2,50.4,12.2z M50.2,12.9c0,0.1,0,0.2-0.1,0.4c-0.1-0.1-0.2-0.1-0.3-0.2
		C50,13,50.1,13,50.2,12.9z M49.9,14.9c0.1,0,0.1,0.1,0.2,0.2c0,0.1,0.1,0.3-0.1,0.4c-0.1,0-0.1-0.1-0.2-0.1
		c-0.1-0.1-0.2-0.2-0.4-0.3C49.5,14.9,49.7,14.9,49.9,14.9z M47.4,13.1c0.1,0,0.2,0,0.4-0.1c0,0,0,0,0,0c-0.1,0.1-0.2,0.2-0.4,0.4
		C47.4,13.3,47.4,13.2,47.4,13.1z M46.6,14.4c0.2,0,0.1,0.2,0.1,0.3c-0.1-0.1-0.2-0.1-0.4-0.2C46.5,14.5,46.5,14.4,46.6,14.4z
		 M44.7,18.6c0,0,0.1,0.1,0.1,0.1c0,0-0.1,0.1-0.1,0.1c0,0-0.1-0.1-0.1-0.1C44.6,18.6,44.7,18.6,44.7,18.6z M43.5,16.6
		c0-0.1,0-0.2-0.1-0.3C43.6,16.4,43.7,16.4,43.5,16.6z M44.1,16.7c0.1,0.1,0.1,0.2,0.2,0.4c0.1,0.1,0.1,0.3-0.1,0.4
		C44,17.5,44,17.4,44,17.2c-0.3,0.2-0.4,0.2-0.7-0.2C43.6,16.9,43.8,16.8,44.1,16.7z M44.5,19.5c-0.1,0-0.2,0.1-0.2,0.1
		c0,0-0.1-0.1-0.1-0.1c0.1,0,0.1-0.1,0.2-0.1C44.4,19.4,44.4,19.4,44.5,19.5z M43.7,17.9C43.7,17.9,43.7,18,43.7,17.9
		c-0.1,0.2-0.1,0.6-0.5,0.5C43.4,18.2,43.5,18.1,43.7,17.9z M43.7,18.9c0,0.2-0.1,0.2-0.3,0.2C43.5,19,43.6,18.9,43.7,18.9
		C43.7,18.9,43.7,18.9,43.7,18.9z M42.3,15.9c0.1,0,0.2,0,0.2,0.1c0,0,0,0.1,0,0.1C42.4,16,42.4,16,42.3,15.9
		C42.3,15.9,42.3,15.9,42.3,15.9z M40.3,16.7c0.1,0,0.1,0,0.2,0.1c-0.1,0.1-0.2,0.1-0.2,0.1C40.3,16.9,40.3,16.9,40.3,16.7
		C40.3,16.8,40.3,16.7,40.3,16.7z M38.9,17.2c-0.1-0.2-0.2-0.3-0.3-0.4C38.9,16.8,38.9,16.8,38.9,17.2z M38.8,16.4
		c-0.3-0.2-0.3-0.5-0.3-0.8c0.1,0.1,0.2,0.1,0.3,0.2C38.8,16,38.8,16.2,38.8,16.4z M38.4,15.6c-0.1-0.2-0.1-0.3-0.1-0.4
		C38.5,15.3,38.6,15.4,38.4,15.6z M38,13.5c0.1,0.1,0.2,0.2,0.2,0.3c0.1,0.2,0.1,0.5,0.2,0.7c0,0.1-0.1,0.2-0.2,0.3
		c-0.1-0.4-0.3-0.8-0.3-1.2C37.9,13.5,37.9,13.5,38,13.5z M34.7,19.9c0,0.2-0.1,0.2-0.2,0.1C34.5,19.9,34.6,19.9,34.7,19.9z
		 M34.6,19c0,0.3-0.1,0.4-0.1,0.7c-0.1-0.2-0.3-0.4-0.4-0.6C34.3,19,34.4,19,34.6,19z M34.4,19.9c-0.2,0-0.3,0-0.5,0
		c-0.1-0.2,0-0.3,0.2-0.4C34.3,19.5,34.2,19.7,34.4,19.9z M33.9,19.4c-0.1-0.1-0.2-0.1-0.3-0.1c-0.1,0-0.1,0-0.2,0
		C33.7,19,33.7,19,33.9,19.4z M33.7,19.5c-0.1,0-0.1,0.1-0.2,0.1c0,0,0-0.1-0.1-0.1C33.6,19.6,33.6,19.5,33.7,19.5
		C33.7,19.5,33.7,19.5,33.7,19.5z M32.6,18.8c0.1,0.2,0.1,0.3-0.1,0.4c-0.1,0-0.1,0.1-0.2,0.2c0,0-0.1-0.1-0.3-0.1
		C32.3,19.2,32.5,19,32.6,18.8z M32.2,20.8c-0.1,0-0.2,0-0.2,0.1C32,20.6,32,20.6,32.2,20.8z M27.8,23.5c0.1,0,0.2,0,0.2,0.2
		c0,0-0.1,0.1-0.1,0C27.9,23.7,27.9,23.6,27.8,23.5C27.8,23.5,27.8,23.5,27.8,23.5z M27.2,22.9C27.2,23,27.2,23,27.2,22.9
		C27.2,23,27.1,23,27.1,23c0,0,0-0.1,0-0.1C27.1,22.9,27.2,22.9,27.2,22.9z M27,20.9c-0.1,0.1-0.2,0.3-0.4,0.1
		C26.7,20.7,26.7,20.7,27,20.9z M26.2,21.2c0,0,0.1-0.1,0.1-0.1c0.1,0.1,0.1,0.1,0.3,0.2c-0.2,0.1-0.3,0.1-0.4,0.1
		C26.2,21.3,26.2,21.2,26.2,21.2z M26.3,24c0.2-0.1,0.3,0,0.5,0.3c-0.2,0.1-0.4,0.1-0.5,0.2C26.1,24.2,26.1,24.1,26.3,24z
		 M25.7,20.7c0,0.2,0,0.3-0.2,0.3c0-0.2-0.1-0.3-0.1-0.5C25.5,20.5,25.7,20.5,25.7,20.7z M24.8,26.2C24.8,26.2,24.8,26.2,24.8,26.2
		c0-0.1,0-0.2,0.1-0.2c0,0,0.1,0.1,0.1,0.1C24.9,26.1,24.9,26.2,24.8,26.2z M24.9,27.2c-0.2,0-0.2-0.2-0.3-0.3
		C24.8,26.9,24.9,27,24.9,27.2z M24.7,22.1c0-0.3,0-0.3,0.3-0.1C24.8,22,24.8,22.1,24.7,22.1z M24.4,21.2c0.2-0.1,0.3,0,0.4,0.1
		c-0.1,0.2-0.1,0.3-0.3,0.2C24.3,21.4,24.3,21.3,24.4,21.2z M23.9,23.1c0.1,0.1,0,0.2-0.2,0.2c-0.1-0.1-0.1-0.2,0-0.3
		C23.8,23,23.9,23.1,23.9,23.1z M23,22.4c0.2-0.3,0.3-0.5,0.5-0.8c0.1,0.1,0.2,0.1,0.3,0.2C23.5,22.1,23.5,22.5,23,22.4z M23.2,29.6
		c0.1,0.1,0.1,0.1,0.1,0.2c0,0.1-0.1,0.1-0.1,0.2c0,0-0.1-0.1-0.1-0.1C23.1,29.7,23.1,29.7,23.2,29.6z M21.9,28.5
		c0.1,0,0.2,0.1,0.4,0.2c0.1,0.1,0.2,0.1,0.3,0.1c0,0.3-0.3,0.2-0.4,0.4c-0.1-0.1-0.2-0.1-0.2-0.2c-0.2,0.1-0.3,0.3-0.6,0.2
		c0-0.1,0-0.2,0-0.4C21.3,28.5,21.5,28.4,21.9,28.5z M22.4,30.8c-0.1,0-0.1,0.1-0.2,0.1c-0.1,0-0.3-0.1-0.5-0.1
		c0.2-0.1,0.4-0.1,0.5-0.1C22.3,30.6,22.4,30.7,22.4,30.8z M21.3,30.1C21.3,30.1,21.4,30.1,21.3,30.1c0.1,0.1,0,0.2,0,0.2
		c0,0-0.1,0-0.1,0C21.3,30.3,21.3,30.2,21.3,30.1z M20.9,31.5c-0.1,0.3-0.3,0.1-0.5,0.1C20.5,31.3,20.7,31.4,20.9,31.5z M20.5,30.1
		c0,0,0.1,0.1,0.1,0.1c-0.1,0-0.2,0.1-0.3,0.1C20.2,30.1,20.3,30.1,20.5,30.1z M18.8,36.9C18.8,36.9,18.8,36.9,18.8,36.9
		c-0.1-0.1-0.1-0.2-0.1-0.4C19,36.6,18.9,36.7,18.8,36.9z M18.2,33.2c0-0.1,0-0.2,0-0.3C18.4,33,18.4,33.1,18.2,33.2z M17.6,38.7
		c0.2,0,0.3,0,0.5,0c-0.1,0.3,0,0.5,0.3,0.6C18.1,39.3,17.7,39.1,17.6,38.7z M17.9,39.3c-0.3,0.2-0.3,0.2-0.4-0.1
		C17.7,39.2,17.8,39.3,17.9,39.3z M18.3,32.5c-0.1,0.3-0.2,0.3-0.4,0.2C18,32.6,18.1,32.4,18.3,32.5z M17.7,36.9
		C17.7,36.9,17.7,37,17.7,36.9c0,0.1,0,0.2-0.1,0.2c0,0-0.1-0.1-0.1-0.1C17.6,37,17.6,37,17.7,36.9z M17.4,39.7
		C17.5,39.7,17.5,39.7,17.4,39.7c0.1,0.1,0.1,0.3,0,0.3c-0.1,0-0.2,0-0.3,0c0,0,0-0.1,0-0.1C17.2,39.8,17.3,39.8,17.4,39.7z
		 M17.2,39.3c-0.1,0-0.2,0-0.3,0c0,0,0-0.1,0-0.1c0.1,0,0.2,0,0.3-0.1C17.2,39.2,17.2,39.2,17.2,39.3z M17.1,40.6
		c-0.1,0.1-0.1,0.1-0.2,0.2c0,0-0.1-0.1-0.1-0.1C16.9,40.6,16.9,40.6,17.1,40.6C17,40.5,17,40.6,17.1,40.6z M16.1,31.4
		c0-0.1-0.1-0.2,0-0.3c0.1-0.1,0.2,0,0.3,0c0.2,0.1,0.2,0.2,0.1,0.3c0,0.1-0.1,0.1-0.2,0.2C16.2,31.5,16.1,31.5,16.1,31.4z
		 M16.3,34.4c-0.1,0-0.1-0.2-0.1-0.4c0.3,0.2,0.5,0.3,0.8,0.4C16.8,34.5,16.5,34.4,16.3,34.4z M16.8,38.8
		C16.8,38.8,16.9,38.9,16.8,38.8c0,0.1-0.1,0.2-0.3,0.3C16.6,38.9,16.7,38.8,16.8,38.8z M15.6,42.2c0,0.1-0.1,0.2,0,0.2
		c0,0.1,0.1,0.1,0.1,0.3c0.1-0.2,0.2-0.3,0.3-0.5c0,0-0.1,0-0.1-0.1c0,0-0.1-0.1-0.1-0.1c0,0,0.1-0.1,0.1-0.1
		c0.1-0.1,0.3-0.1,0.4-0.2c0.1-0.2,0.2-0.3,0.3-0.5c0.1,0.2,0.1,0.3,0.1,0.3c-0.2,0.2,0,0.4,0.1,0.6c-0.2,0.1-0.5,0.2-0.8,0.4
		c0.1,0.1,0.2,0.1,0.2,0.1c-0.1,0.1-0.3,0.3-0.4,0.4c-0.2-0.1-0.4-0.2-0.4-0.3c0-0.3-0.2-0.3-0.3-0.3C15.2,42.2,15.2,42.2,15.6,42.2
		z M16.3,44.5c0.2,0,0.3,0.2,0.2,0.4C16.2,44.8,16.2,44.7,16.3,44.5z M16.5,47c0,0.1-0.1,0.2-0.1,0.3c0,0-0.1,0-0.1-0.1
		c-0.1-0.2-0.2-0.4-0.3-0.6c0.1,0,0.3,0,0.4,0C16.4,46.8,16.5,46.9,16.5,47z M15.6,45.5c-0.2,0.2-0.2,0.2-0.4-0.1
		C15.4,45.3,15.5,45.4,15.6,45.5z M15.1,45.2c0,0-0.1,0-0.1-0.1c0,0,0.1-0.1,0.1-0.1c0,0,0.1,0.1,0.1,0.1
		C15.2,45.1,15.2,45.2,15.1,45.2z M15,44.2C15,44.2,15.1,44.3,15,44.2c0,0.2,0,0.3-0.3,0.3C14.9,44.3,14.9,44.3,15,44.2z M14.6,50.6
		c0.1,0,0.2,0,0.2,0c-0.2-0.3-0.1-0.5,0.2-0.7c0.2-0.2,0.6-0.2,0.7-0.6c0.2,0.1,0.4,0.2,0.6,0.4c0,0.1,0,0.3,0,0.4
		c0,0.2-0.1,0.3-0.4,0.4c-0.1,0-0.3,0-0.4,0.1c-0.1,0-0.2,0.1-0.2,0.1C15.1,50.8,14.9,50.8,14.6,50.6z M15.5,52.7
		c0-0.2,0.2-0.2,0.4-0.4C16,52.7,15.9,52.8,15.5,52.7z M14.7,53.8c0-0.1-0.1-0.1-0.1-0.2c0,0,0.1,0,0.1,0
		C14.7,53.6,14.8,53.7,14.7,53.8C14.8,53.8,14.7,53.8,14.7,53.8z M15,52.6c0,0-0.1,0.1-0.2,0.1c-0.1,0-0.2-0.1-0.2-0.1
		c-0.1-0.1-0.2-0.3-0.3-0.4c0.1,0,0.2,0,0.4-0.1c-0.1-0.1-0.2-0.2-0.4-0.3c0.4,0,0.4,0,0.5,0.4c0,0.1,0.1,0.2,0.2,0.3
		C15,52.5,15,52.6,15,52.6z M15.2,55.9c0,0,0-0.1,0-0.1c0.1,0,0.2,0,0.3,0c0,0,0,0.1,0,0.1C15.4,55.9,15.3,55.9,15.2,55.9z
		 M15.9,61.2c-0.3,0-0.4,0-0.3-0.2c0-0.1,0.2-0.2,0.2-0.1C16.1,60.9,15.9,61,15.9,61.2z M16,55.6c0.2-0.1,0.4-0.3,0.7-0.4
		c0.1,0,0.1,0,0.1,0.6c-0.1,0.1-0.3,0.2-0.4,0.3C16.2,55.9,15.9,55.9,16,55.6z M17.4,61.3c-0.2,0.1-0.3,0.1-0.5,0.2
		c-0.2-0.1-0.3-0.2-0.5-0.3c0,0,0,0,0,0c0,0,0,0,0,0c0,0.1-0.1,0.2-0.1,0.3c-0.1-0.2-0.1-0.4,0-0.7c0,0.2,0,0.3,0.1,0.4c0,0,0,0,0,0
		c0,0,0,0,0,0c0,0,0.1,0,0.1,0c0.2,0.1,0.4,0,0.6-0.1c0.1-0.1,0.2-0.1,0.3-0.1c0,0,0.1,0.1,0.1,0.1c-0.1,0-0.1,0.1-0.2,0.1
		c0.1,0,0.1,0,0.2,0C17.5,61.3,17.5,61.3,17.4,61.3z M18.2,64.4c0-0.3,0.1-0.3,0.2-0.4c0,0,0.1,0,0.1,0.1
		C18.4,64.2,18.3,64.3,18.2,64.4z M18.4,72.6c-0.1,0-0.2,0-0.3,0c-0.1,0-0.2-0.1-0.3-0.2c0-0.1-0.1-0.2-0.1-0.2
		c0-0.1,0.1-0.1,0.2-0.1c0,0,0.1,0,0.1,0c0.2-0.2,0.3-0.3,0.5-0.4c0.1,0,0.2,0,0.3,0c0.1,0,0.1,0.2,0.1,0.2
		C18.9,72.2,18.6,72.4,18.4,72.6z M19.1,70.5c-0.1-0.2-0.2-0.3-0.1-0.4c0,0,0.1,0,0.2,0.1C19.1,70.3,19.1,70.4,19.1,70.5z M19.3,71
		c0.1,0.1,0.1,0.1,0.2,0.2C19.3,71.2,19.3,71.2,19.3,71z M19.6,73.6c-0.1-0.1-0.1-0.1-0.2-0.2c0.2-0.1,0.2,0,0.3,0
		C19.6,73.5,19.6,73.6,19.6,73.6z M19.5,71c0,0-0.1-0.1-0.1-0.1c0,0,0-0.1,0.1-0.1c0.1,0.1,0.1,0.1,0.1,0.2C19.6,71,19.5,71,19.5,71
		z M20,73.1c-0.1-0.6-0.1-0.7,0.2-0.6C20.2,72.7,20.1,72.9,20,73.1z M20,68.7c0,0,0,0.1-0.1,0.1c0.2,0,0.4,0.2,0.3,0.4
		c-0.1,0.1-0.2,0.2-0.3,0.3c-0.2-0.1-0.2-0.3-0.3-0.5c-0.1-0.1,0-0.3-0.3-0.3c-0.1,0-0.2-0.2-0.1-0.3c0.1,0,0.2,0.2,0.3,0
		C19.7,68.4,19.8,68.7,20,68.7C20,68.6,20,68.6,20,68.7L20,68.7C20,68.6,20,68.6,20,68.7c0.1-0.1,0.2-0.1,0.3-0.2
		C20.1,68.7,20.1,68.7,20,68.7C20,68.6,20,68.6,20,68.7C20,68.6,20,68.6,20,68.7C20,68.6,20,68.6,20,68.7z M20.7,72.9
		c-0.1-0.1-0.1-0.1-0.2-0.2c0.1-0.1,0.2-0.1,0.3-0.2c0,0,0,0,0.1,0C20.8,72.7,20.8,72.8,20.7,72.9z M21.4,69.2c0,0,0,0.1-0.1,0.1
		c-0.1,0-0.2-0.1-0.3-0.1c0,0,0,0-0.1,0c-0.1,0.2,0.1,0.3,0.2,0.3c0,0.1-0.1,0.2-0.2,0.1c-0.1-0.1-0.2-0.1-0.3-0.2c0,0,0,0,0,0l0,0
		c0,0,0,0,0,0c0,0,0,0,0,0c0,0.4-0.1,0.4-0.4,0.5c0-0.2,0.1-0.3,0.1-0.6c0.1,0,0.2,0.1,0.3,0.1c0,0,0,0,0,0c0,0,0,0,0,0
		c0-0.1,0-0.2,0-0.2c-0.1-0.1-0.3-0.1-0.4-0.2c0.3-0.2,0.5-0.3,0.7,0c0.1,0.1,0.2,0.1,0.4,0.1C21.4,69.1,21.4,69.2,21.4,69.2z
		 M20.5,68.2c0.1-0.1,0.1-0.1,0.2-0.2c0,0,0.1,0.1,0.1,0.1C20.7,68.2,20.6,68.2,20.5,68.2C20.5,68.3,20.5,68.3,20.5,68.2z M22,74.1
		c0,0-0.1,0-0.1-0.1c0,0,0-0.1-0.1-0.2C21.9,74,22,74,22,74.1C22,74.1,22,74.1,22,74.1z M22.1,70.7c-0.3,0-0.2-0.3-0.3-0.4
		c0.2-0.1,0.3,0.1,0.4,0.1C22.1,70.5,22.1,70.6,22.1,70.7z M24,73.6c-0.2,0.1-0.2,0.1-0.2-0.1C23.9,73.5,24,73.5,24,73.6
		C24,73.6,24,73.6,24,73.6L24,73.6c0.1-0.1,0.1-0.1,0.2-0.2c0.1,0.1,0.2,0.2,0.2,0.3C24.2,73.8,24.1,73.8,24,73.6z M26.1,74.8
		c0,0-0.1-0.1-0.1-0.1c0,0,0.1,0,0.1-0.1C26.1,74.7,26.2,74.7,26.1,74.8C26.2,74.8,26.1,74.8,26.1,74.8z M26.3,76.7
		c0.1-0.1,0.2-0.2,0.2-0.2c0,0.1,0.1,0.1,0.1,0.2C26.6,76.7,26.5,76.8,26.3,76.7z M27.5,76.7c0,0,0,0.1,0,0.1
		c-0.3,0-0.2,0.5-0.6,0.4c0.2-0.2,0.3-0.4,0.5-0.6c-0.2-0.1-0.2-0.3,0-0.5c0.1,0.1,0.2,0.3,0.2,0.4C27.6,76.5,27.5,76.6,27.5,76.7z
		 M26.9,74.6c0.1-0.1,0.2-0.2,0.4-0.2c0,0,0.1,0.1,0.1,0.1C27.3,74.8,27.1,74.6,26.9,74.6C27,74.7,26.9,74.7,26.9,74.6z M28.2,80.4
		c-0.1-0.2-0.2-0.3-0.3-0.4c0.1-0.1,0.3-0.1,0.4,0C28.3,80.1,28.3,80.2,28.2,80.4z M28.8,82.4C28.8,82.4,28.8,82.4,28.8,82.4
		c-0.1-0.1-0.1-0.2-0.1-0.3c0,0,0.1,0,0.1,0C28.8,82.3,28.8,82.4,28.8,82.4z M28.8,81c0.2-0.3,0.2-0.3,0.5,0
		C29.1,81,28.9,81,28.8,81z M28.8,76.6c0-0.2,0.1-0.2,0.3-0.3c0,0.2-0.1,0.4-0.1,0.5C28.7,76.9,28.8,76.7,28.8,76.6z M29.4,77.8
		c0.1-0.1,0.1-0.2,0.2-0.3c0.1,0.1,0.1,0.1,0.2,0.2C29.6,77.7,29.6,77.7,29.4,77.8z M30.3,82.3C30.3,82.3,30.2,82.3,30.3,82.3
		c0-0.1,0-0.2,0-0.2c0,0,0.1,0,0.1,0.1C30.4,82.2,30.3,82.2,30.3,82.3z M30.4,78.9c-0.1,0.1-0.2,0.2-0.4,0c0-0.1,0.1-0.2,0.1-0.3
		c0.1,0.1,0.2,0.1,0.3,0.1C30.4,78.8,30.4,78.8,30.4,78.9z M30.8,82.4c-0.1,0-0.2,0-0.2,0c0,0,0-0.1,0-0.1c0.1,0,0.2,0,0.3,0
		C30.8,82.3,30.8,82.4,30.8,82.4z M30.9,81.7c0-0.2,0-0.4,0-0.5c0.3-0.1,0.4,0,0.4,0.2C31.3,81.6,31.3,81.7,30.9,81.7z M31.2,82.4
		c0-0.1,0-0.1,0-0.2c0-0.1,0-0.1,0.1-0.2C31.3,82.2,31.3,82.2,31.2,82.4z M31.2,80.1C31.1,80.1,31.1,80.1,31.2,80.1
		c-0.2,0.1-0.4,0.1-0.4-0.1c-0.1-0.2-0.4-0.3-0.2-0.6c0.1-0.1,0.4-0.1,0.5,0c0.1,0.1,0.2,0.3,0.3,0.4C31.3,79.9,31.2,80,31.2,80.1z
		 M32.2,80.1c0,0,0.1,0,0.1-0.1c0.1,0.1,0.1,0.2,0.2,0.2c0,0-0.1,0.1-0.1,0.1C32.3,80.3,32.2,80.2,32.2,80.1z M33,81.2
		c-0.2,0-0.2,0.1-0.2,0.3c0,0.1,0,0.2,0,0.4c-0.2,0.1-0.2,0.1-0.5,0c0.1-0.4,0.4-0.8,0.7-1.1C33.4,81,33.3,81.1,33,81.2z M33.2,78.4
		C33.2,78.4,33.2,78.4,33.2,78.4c0-0.1,0-0.2,0.1-0.3c0,0,0.1,0,0.1,0.1C33.3,78.3,33.3,78.4,33.2,78.4z M35.7,81.1
		c0,0-0.1-0.1-0.1-0.1c0-0.1,0.1-0.1,0.1-0.1c0,0,0.1,0.1,0.2,0.1C35.8,81.1,35.7,81.1,35.7,81.1z M37.1,82.9c0-0.2,0-0.2,0.2-0.2
		C37.4,82.9,37.2,82.8,37.1,82.9z M42.2,82c-0.1,0-0.1-0.1-0.2-0.1c0,0,0.1-0.1,0.1-0.1c0,0,0.1,0,0.2,0.1
		C42.3,81.9,42.2,82,42.2,82z M42.5,81.3c0.3-0.2,0.3-0.1,0.4,0.2C42.7,81.4,42.6,81.3,42.5,81.3z M44.7,87.9
		c-0.2,0.1-0.5,0.2-0.7,0c0.1-0.3,0.4-0.3,0.7-0.3c0,0,0.2,0.1,0.2,0.1C44.8,87.8,44.7,87.9,44.7,87.9z M44.2,86.8
		c0-0.4,0.1-0.5,0.5-0.6C44.5,86.4,44.4,86.6,44.2,86.8z M45.1,87.7c0,0-0.1,0-0.1,0c0-0.1,0-0.2,0-0.3
		C45.2,87.5,45.1,87.6,45.1,87.7z M45.3,85.2c0-0.2,0.1-0.3,0.2-0.1C45.5,85.1,45.4,85.2,45.3,85.2z M46.4,85.8
		C46.5,85.8,46.5,85.7,46.4,85.8c0.1-0.1,0.2,0,0.3,0C46.6,85.9,46.5,85.9,46.4,85.8z M47.7,84.4C47.7,84.4,47.7,84.4,47.7,84.4
		c0.1,0,0.2,0.1,0.2,0.3C47.8,84.6,47.7,84.5,47.7,84.4z M48.4,84.9c-0.1-0.1-0.1-0.2-0.2-0.3c0,0,0,0,0.1-0.1
		c0.1,0,0.1,0.1,0.2,0.1C48.6,84.8,48.5,84.9,48.4,84.9z M49.2,84.4c-0.1,0.1-0.2,0.2-0.3,0.3c-0.3-0.1-0.3-0.6-0.7-0.5
		c0.1-0.1,0.1-0.1,0.2-0.2c0,0,0,0,0,0c-0.1,0-0.2,0-0.3,0c0-0.2,0.1-0.3,0.2-0.3c0.2,0,0.1,0.2,0.1,0.3c0,0,0,0,0,0c0,0,0,0,0,0
		c0.1,0,0.1,0.1,0.2,0.2c0.1,0,0.2,0,0.4-0.1c-0.1,0.1-0.2,0.2-0.3,0.3c0.2,0,0.3,0,0.4,0c0-0.1,0-0.2,0-0.4
		C49.5,84.2,49.5,84.3,49.2,84.4z M49.5,84.9c0.1,0,0.3,0.1,0.5,0.1C49.8,85.1,49.7,85.1,49.5,84.9z M49.8,84.4
		C49.8,84.4,49.8,84.4,49.8,84.4c0,0.2,0,0.3-0.1,0.4C49.4,84.5,49.7,84.5,49.8,84.4z M49.9,85.8c0.1,0,0.2-0.1,0.3-0.1
		C50.2,85.9,50.1,85.9,49.9,85.8z M51.2,83.5c0.1-0.2,0.1-0.3,0.1-0.5C51.5,83.3,51.5,83.3,51.2,83.5z M51.8,84.5
		c0-0.1-0.1-0.2-0.1-0.3c0,0,0,0,0.1,0C51.8,84.3,51.8,84.4,51.8,84.5C51.8,84.5,51.8,84.5,51.8,84.5z M52.2,85.2
		c0-0.2,0.1-0.3,0.3-0.2C52.4,85.1,52.3,85.1,52.2,85.2z M54.2,84.6c0,0-0.1,0-0.1-0.1c0,0,0.1-0.1,0.1-0.1
		C54.2,84.5,54.2,84.5,54.2,84.6C54.2,84.5,54.2,84.6,54.2,84.6z M55.5,84.2c0.1,0.2,0.1,0.2,0.2,0.3C55.5,84.5,55.5,84.4,55.5,84.2
		z M56.8,83.7c0.3,0.2,0,0.3-0.1,0.5C56.4,83.9,56.4,83.9,56.8,83.7z M56.7,86.4c0.1-0.1,0.2-0.1,0.3-0.2C57,86.5,57,86.5,56.7,86.4
		z M57,87.1c0-0.1,0.1-0.1,0.1-0.1c0,0,0.1,0.1,0.1,0.1c0,0,0,0.1-0.1,0.1C57.1,87.1,57,87.1,57,87.1z M57.2,87.4
		c0.2-0.1,0.2-0.1,0.4,0.1C57.3,87.7,57.3,87.7,57.2,87.4z M57.7,85.1c-0.1-0.1-0.2-0.2-0.3-0.3c0,0-0.1-0.1-0.1-0.1
		c0.1-0.3-0.2-0.2-0.3-0.3c0.3-0.3,0.5-0.3,0.6,0.1c0.1-0.1,0.3-0.2,0.5-0.3c-0.2-0.1-0.3-0.1-0.3-0.1c0.1-0.3,0.4-0.3,0.6-0.4
		c0-0.2,0-0.2,0.2-0.4c0.2,0.2,0.1,0.3,0,0.5c0.1,0.1,0.2,0.2,0.2,0.3c-0.3,0.1-0.5,0.3-0.8,0.4c0,0.1,0,0.1,0,0.1
		c0.1,0,0.1,0,0.2,0C58,84.8,57.9,84.9,57.7,85.1z M56.9,83.3c0.2-0.1,0.4-0.1,0.6-0.2c0.2,0.4,0.1,0.5-0.2,0.7
		C57.1,83.7,57,83.5,56.9,83.3z M58.5,86.9c-0.1-0.1-0.2-0.1-0.3-0.2c0-0.1-0.1-0.1-0.1-0.2c0,0,0.1-0.1,0.1-0.1
		c0.1,0,0.2,0.1,0.2,0.1C58.5,86.7,58.5,86.8,58.5,86.9z M58.8,87.4C58.7,87.4,58.7,87.4,58.8,87.4c-0.1-0.2,0-0.3,0-0.4
		c0,0,0.1,0,0.1,0C58.8,87.1,58.8,87.3,58.8,87.4z M58.8,82.6c0.1,0,0.1-0.1,0.2-0.1c0,0,0,0.1,0,0.1C59,82.7,58.9,82.7,58.8,82.6
		C58.8,82.7,58.8,82.7,58.8,82.6z M59,86.8c0,0,0-0.1-0.1-0.1c0.1,0,0.1-0.1,0.2-0.1c0,0,0.1,0.1,0,0.1C59.1,86.7,59,86.7,59,86.8z
		 M59.5,81.2c0.2,0.1,0.3,0.1,0.4,0.1C59.7,81.5,59.6,81.5,59.5,81.2z M60,81c-0.3,0-0.3,0-0.4-0.3c0.2,0,0.3,0,0.5-0.1
		C60.1,80.8,60,80.9,60,81z M60.1,81.1c0.1,0.1,0.2,0.1,0.3,0.2C60.1,81.3,60.1,81.3,60.1,81.1z M60.6,82.2c0.1-0.1,0.1-0.1,0.2-0.2
		C60.9,82.3,60.9,82.3,60.6,82.2z M61,82.9c0-0.1,0-0.2,0-0.4C61.2,82.8,61.2,82.8,61,82.9z M61.7,83.8c-0.3-0.4-0.3-0.4,0-0.6
		c0.1,0.2,0.2,0.3,0.3,0.5C61.8,83.7,61.7,83.8,61.7,83.8z M65.3,81.3c0.3-0.1,0.2,0.4,0.5,0.3c0,0,0,0.1,0.1,0.1
		c-0.1,0-0.2,0.1-0.2,0.1C65.3,81.6,65.3,81.6,65.3,81.3z M66.5,81.7c-0.1,0-0.1,0.1-0.2,0.2c0,0,0,0,0,0c0,0,0,0,0,0c0,0,0,0,0,0
		c0.1,0,0.1,0,0.2-0.1c-0.2,0.2-0.2,0.2-0.2,0.1c0,0,0,0,0,0c0,0,0,0,0,0c-0.1,0.1-0.3,0.2-0.4,0.3c-0.1,0-0.2-0.1-0.4-0.2
		c0.3-0.1,0.5-0.3,0.7-0.4c0,0,0-0.2,0-0.2c0.1-0.1,0.2-0.1,0.3-0.1C66.6,81.5,66.7,81.6,66.5,81.7z M67,81.5c0-0.1,0-0.2-0.1-0.3
		c0.1,0,0.2,0,0.2-0.1c-0.1-0.2-0.2-0.4-0.3-0.6c0,0,0.1-0.2,0.1-0.2c0.1,0,0.4,0,0.3,0.1c-0.1,0.3,0.2,0.4,0.2,0.6
		c0,0.1,0,0.1,0,0.2C67.4,81.3,67.2,81.4,67,81.5z M67.6,80.1c0-0.2,0.1-0.3,0.3-0.4c0,0.3,0.4,0.3,0.3,0.7
		C67.8,80.3,67.6,80.3,67.6,80.1z M67.7,82.4c0-0.1,0-0.3,0-0.4c0-0.1,0.1-0.2,0.2-0.2c0.1,0,0.2-0.1,0.2,0c0.3,0.1,0.7-0.1,0.9,0.2
		C68.7,82.4,68.2,82.6,67.7,82.4z M69.8,83c-0.2,0.1-0.5,0.1-0.9,0.2C69,83,69,82.9,69,82.9c0.2-0.1,0.4-0.2,0.6-0.2
		c0.1,0,0.2,0.1,0.3,0.1C69.9,82.9,69.8,83,69.8,83z M69.6,80.8c0.1,0.1,0.2,0.2,0.3,0.3c0,0.1-0.1,0.2-0.2,0.3
		C69.6,81.1,69.4,81,69.6,80.8z M70.8,80.2c0.1,0,0.1,0,0.1,0c0.1,0.1,0.2,0.2,0,0.3C70.9,80.4,70.9,80.3,70.8,80.2z M71,82.3
		c0.2,0.1,0.3,0.2,0.5,0.3C71.1,82.6,71.1,82.6,71,82.3z M71.2,77.4C71.2,77.3,71.2,77.3,71.2,77.4c0.2,0,0.4,0.1,0.6,0.3
		C71.4,77.7,71.4,77.7,71.2,77.4z M73.4,76.8c0-0.1-0.1-0.1-0.1-0.1c0-0.1,0.1-0.1,0.2-0.1c0,0,0.1,0.1,0.1,0.1
		C73.5,76.7,73.5,76.7,73.4,76.8z M75.1,72.7c0.1,0.1,0.2,0.1,0.3,0.1c0,0,0,0,0,0c0,0,0,0,0,0c0-0.1,0-0.2,0.1-0.3
		c0.1,0.1,0.1,0.2,0.2,0.3c-0.1,0-0.2,0-0.2,0c0,0,0,0,0,0c0,0,0,0,0,0c0.1,0.1,0.2,0.3,0.4,0.4C75.5,73.2,75.2,73.2,75.1,72.7z
		 M75.8,71.7c0.2,0,0.3,0,0.4,0c0,0,0,0,0,0.1c-0.1,0.1-0.2,0.1-0.3,0.2C76,71.9,75.9,71.9,75.8,71.7z M76.3,72.6
		c-0.1,0.1-0.1,0.1-0.2,0.2C76,72.6,76,72.6,76.3,72.6z M76.1,73c0,0,0-0.1,0-0.1c0.1,0,0.2,0,0.3,0c0,0,0,0,0,0.1
		C76.3,73,76.2,73,76.1,73z M76.9,72.6c0.1-0.1,0.3-0.2,0.4-0.2C77.2,72.6,77.2,72.6,76.9,72.6z M77.8,73.4
		C77.8,73.4,77.8,73.4,77.8,73.4c0-0.1,0-0.2,0-0.2c0,0,0.1,0.1,0.1,0.1C77.9,73.4,77.9,73.4,77.8,73.4z M78.9,68.8
		c0.1-0.1,0.1-0.2,0.1-0.2c0,0,0.1,0.1,0.1,0.1C79.1,68.7,79.1,68.8,78.9,68.8z M78.8,68.4c0-0.2,0.1-0.3,0.3-0.3
		C79.1,68.4,79.1,68.4,78.8,68.4z M76.3,70.9l-2-1.7c-0.1-0.1-0.2-0.1-0.3,0l-0.9,1c0.3,0,0.5-0.1,0.8-0.2c0.2-0.1,0.5,0.2,0.5,0.5
		c0.1,0,0.2,0,0.2,0c0.2,0,0.3,0.1,0.3,0.3c0,0.2,0,0.3,0,0.4c-0.1,0.2-0.2,0.3-0.3,0.5C74.6,72,74.5,72,74.3,72
		c-0.2-0.1-0.3-0.1-0.4,0.1l0.9,0.7c-1.5,1.6-3.1,3-4.8,4.3l-0.6-0.9c0,0.6-0.1,0.6-0.5,0.7c-0.1-0.4-0.1-0.4,0.1-0.6
		c-0.2-0.3-0.4-0.2-0.7,0c0-0.1,0-0.2,0.1-0.3c-0.1,0-0.1,0-0.2-0.1c0,0,0-0.1,0-0.1c0.1,0,0.3-0.1,0.4-0.1c0.1,0,0.2,0,0.3,0.1
		c0.1,0.1,0.3,0.2,0.4,0.3l-0.8-1.2c-0.1-0.1-0.2-0.1-0.3-0.1l-1.7,1.2c-0.1,0.1-0.1,0.2-0.1,0.3l1.5,2.1c-0.6,0.4-1.2,0.7-1.8,1
		c0,0,0,0.1,0,0.1c0,0-0.1,0.1-0.1,0.1c0,0-0.1-0.1-0.1-0.1c-0.1,0.1-0.3,0.2-0.4,0.2c0.1,0,0.1,0.1,0.2,0.2c-0.1,0-0.2,0-0.4,0
		c0,0,0-0.1,0-0.1c-1.1,0.5-2.1,1-3.3,1.5L61.2,79c0-0.1-0.1-0.2-0.3-0.1l-0.2,0.1c0,0,0,0,0,0c0,0,0,0,0,0L59,79.5
		c-0.1,0-0.2,0.1-0.1,0.3l0.5,1.4c0,0,0,0,0,0c0,0,0,0,0,0l0.2,0.7c0,0,0,0,0,0c0,0,0,0,0,0l0.1,0.3c-2.1,0.6-4.3,1.1-6.6,1.3
		l-0.1-2.6c0-0.1-0.1-0.2-0.2-0.2c-0.1,0.1-0.2,0.2-0.3,0.2c0-0.1,0-0.2,0.1-0.2l-1.8,0.1c-0.1,0-0.2,0.1-0.2,0.2l0.1,2.6
		c-0.4,0-0.8,0-1.2,0c-0.3,0-0.6,0-1,0c0,0,0,0,0,0.1c0,0,0,0-0.1-0.1c-1.6-0.1-3.2-0.3-4.7-0.6l0.6-2.5c0,0,0-0.1,0-0.1
		c0,0,0,0,0,0c-0.1-0.1-0.2-0.1-0.3-0.2L42,79.8c-0.1,0-0.2,0-0.2,0.1l-0.6,2.5C39,81.9,36.9,81,34.9,80l1.1-2c0,0,0,0-0.1,0
		c0,0-0.1-0.1-0.1-0.1c0,0,0.1-0.1,0.1-0.1c0,0,0.1,0,0.2,0.1l0.1-0.2c0.1-0.1,0-0.2-0.1-0.3l-0.2-0.1c0,0.1,0,0.2,0,0.2
		c0,0-0.1,0-0.1,0c-0.1-0.1-0.1-0.1-0.3-0.2c0.1-0.1,0.1-0.1,0.2-0.1l-1.5-0.8c-0.1-0.1-0.2,0-0.3,0.1l-1.2,2.3
		c-0.2-0.1-0.4-0.3-0.7-0.4c0,0.1,0,0.2-0.1,0.2c-0.2-0.2-0.4-0.4-0.6-0.6c0,0,0,0,0,0c-1.4-0.9-2.7-1.9-3.9-3l1.8-1.8
		c0.1-0.1,0.1-0.2,0-0.3l-1.5-1.5c-0.1-0.1-0.2-0.1-0.3,0l-1.8,1.8c-0.1-0.1-0.2-0.2-0.3-0.3c-0.1,0-0.3,0-0.4,0.1
		c-0.1-0.3-0.2-0.4,0-0.5c-1.2-1.3-2.3-2.8-3.3-4.3l2.2-1.3c0.1-0.1,0.1-0.2,0.1-0.3L23,64.7c0-0.1-0.1-0.1-0.1-0.1c0,0,0,0,0,0
		c-0.2,0.1-0.5,0.2-0.7,0.3c0,0,0,0,0,0l-0.4,0.2c0,0,0,0,0,0c0,0.1-0.1,0.2-0.2,0.2c-0.1,0-0.1,0-0.2,0L20.5,66
		c-1-1.9-1.9-3.9-2.5-6l2.5-0.7c0.1,0,0.2-0.1,0.1-0.2l-0.1-0.4c0,0,0,0.1-0.1,0.1c0-0.1-0.1-0.1-0.2-0.3c0.1,0,0.2,0,0.2,0L20,57
		c0-0.1-0.1-0.2-0.2-0.1l-2.5,0.7c-0.3-1.2-0.5-2.5-0.6-3.8c-0.1,0-0.2,0.1-0.2,0.1c0,0.2,0,0.3-0.1,0.5c-0.4,0-0.6-0.3-0.8-0.5
		c0.1-0.2,0.1-0.3,0.2-0.5c0.3,0.1,0.7,0,0.9,0.2c-0.1-0.9-0.2-1.8-0.2-2.7l1.6,0c0,0,0,0,0,0c0.2-0.1,0.3-0.1,0.4-0.1
		c0.1,0.1,0.1,0.1,0.1,0.2l0.5,0c0.1,0,0.1,0,0.2-0.1c0,0,0,0,0,0c0,0-0.1-0.1-0.1-0.1c0,0,0-0.1,0.1-0.1c0,0,0.1,0,0.1,0l0-2.1
		c0-0.1-0.1-0.2-0.2-0.2l-1.9,0c0,0,0,0,0,0c0,0-0.1,0-0.1,0c0,0,0,0,0,0l-0.6,0c0.1-1,0.2-2.1,0.3-3.1c0,0.1,0,0.1-0.1,0.2
		c0,0-0.1,0-0.1,0c0-0.1,0.1-0.3,0.1-0.4c0,0,0,0,0.1,0c0.2-1.2,0.4-2.4,0.7-3.6l2.5,0.8c0.1,0,0.2,0,0.2-0.1l0.6-2
		c0-0.1,0-0.2-0.1-0.2L18.3,39c0.7-2.1,1.7-4.1,2.8-6l2.2,1.4c0.1,0.1,0.2,0,0.3-0.1l1.1-1.8c0.1-0.1,0-0.2-0.1-0.3l-2.2-1.4
		c1.2-1.8,2.6-3.4,4.2-4.9l1.3,1.5c0,0,0-0.1,0-0.1c0.1,0.1,0.2,0.1,0.3,0.2c0,0-0.1,0.1-0.1,0.1c0,0,0,0,0,0l0.3,0.3
		c0.1,0.1,0.2,0.1,0.3,0l0.5-0.5c0,0-0.1-0.1-0.1-0.1c0,0,0-0.1,0-0.2c0,0,0.1,0,0.1,0c0,0.1,0.1,0.1,0.1,0.2l0.8-0.7
		c-0.3-0.1-0.3-0.2,0-0.5c0,0.1,0,0.3,0,0.4l0.1-0.1c0.1-0.1,0.1-0.2,0-0.3l-1-1.1c-0.1,0.1-0.2,0-0.4-0.2c0-0.1,0.1-0.1,0.1-0.2
		l-0.4-0.4c1.7-1.4,3.4-2.6,5.3-3.6L35,23c0,0.1,0.2,0.1,0.3,0.1l0.3-0.2c0,0,0,0-0.1,0c-0.1-0.2,0.2-0.3,0.3-0.5
		c0.1,0.1,0.2,0.2,0.3,0.3l1.1-0.5c0.1,0,0.1-0.2,0.1-0.3l-1.2-2.3c2-0.9,4.1-1.6,6.2-2.1l0.5,2.5c0,0.1,0.1,0.2,0.2,0.2l0.3-0.1
		c0,0,0,0,0,0c0,0,0,0,0,0l1.8-0.3c0.1,0,0.2-0.1,0.2-0.2L44.8,17l0,0c0,0,0-0.1-0.1-0.1c0.1,0,0.1-0.1,0.2-0.1c0,0,0,0.1,0,0.1
		c0,0,0,0-0.1,0c1.8-0.3,3.7-0.4,5.7-0.4c0.4,0,0.7,0,1.1,0l-0.2,2.6c0,0.1,0.1,0.2,0.2,0.2l0.2,0c0,0,0,0,0,0c0,0,0,0,0,0l1.8,0.2
		c0.1,0,0.1,0,0.1-0.1c0,0,0.1-0.1,0.1-0.1l0.2-2.6c2.3,0.3,4.6,0.8,6.7,1.6L60,20.7c0,0.1,0,0.2,0.1,0.3l2,0.8c0.1,0,0.2,0,0.3-0.1
		l0.9-2.4c0.6,0.3,1.2,0.5,1.8,0.8c0.2-0.1,0.3-0.2,0.5-0.3c0,0,0,0.1,0.1,0.2c0.1,0,0.2,0,0.3,0c-0.1,0.3,0,0.5,0.3,0.6
		c-0.1,0.1-0.1,0.1-0.2,0.1c1.1,0.6,2.1,1.2,3.1,1.9l-1.5,2.1c-0.1,0.1,0,0.2,0,0.3l1.7,1.3c0.1,0.1,0.2,0,0.3,0l1.5-2.1
		c0.1,0.1,0.2,0.2,0.3,0.3c0.1,0,0.1,0,0.2,0c0.1,0.1,0.1,0.1,0.2,0.2c0,0,0,0,0,0c0.4,0.4,0.9,0.8,1.3,1.2c0-0.3-0.2-0.4-0.4-0.5
		c0.4-0.1,0.4-0.1,0.7,0.4c-0.1,0.1-0.2,0.1-0.3,0.2c0.2,0.2,0.4,0.3,0.5,0.5c0,0,0,0,0,0c0,0,0.1-0.1,0.1-0.1c0,0,0.1,0.1,0.1,0.1
		c0,0,0,0.1-0.1,0.1c0.3,0.3,0.5,0.6,0.8,0.8c0,0,0,0,0,0c0-0.2,0-0.4-0.2-0.5c-0.2-0.1-0.2-0.3,0-0.5c0.2,0.1,0.5,0.3,0.7,0.4
		c0.2,0.1,0.5,0.1,0.7,0.1c-0.1,0.2-0.1,0.3-0.2,0.4c0,0-0.1,0.1-0.2,0.1c0,0,0,0,0,0c0,0.1,0,0.2-0.1,0.3c-0.2,0.1-0.3,0.1-0.5,0.2
		c0,0,0,0,0,0c0,0,0,0,0,0c0.1,0,0.1,0.1,0.2,0.1c0,0,0,0,0,0c0.2,0.2,0.4,0.5,0.6,0.7l-2,1.6c-0.1,0.1-0.1,0.2,0,0.3l1.3,1.7
		c0.1,0.1,0.2,0.1,0.3,0l0.7-0.5c-0.1-0.2-0.2-0.4-0.3-0.6c0.3-0.2,0.3-0.2,0.5,0c0.1,0.1,0.2,0.1,0.2,0.2l0.9-0.7
		c1.3,1.7,2.4,3.6,3.3,5.6l-2.4,1c-0.1,0-0.1,0.2-0.1,0.3l0.8,1.9c0,0.1,0.2,0.1,0.3,0.1l2.4-1c0.8,2.1,1.3,4.2,1.7,6.4L80.6,45
		c-0.1,0-0.2,0.1-0.2,0.2l0.3,2.1c0,0.1,0.1,0.2,0.2,0.2l2.6-0.3c0.1,1.2,0.1,2.3,0.1,3.5c0,0.3,0,0.7,0,1c0.1,0,0.2,0,0.2,0.1
		c0.1,0,0.1,0.1,0.1,0.2c0,0-0.1,0.2-0.1,0.2c-0.1,0-0.2,0-0.2-0.1c0,0,0,0.1,0,0.1c0,0,0,0,0,0c0,0,0,0,0,0c0,0.6-0.1,1.3-0.2,1.9
		L82.7,54c0,0,0,0-0.1,0.1c0,0,0.1,0,0.1-0.1c0.1,0.2,0.3,0.3,0.4,0.5c0,0.1,0.1,0.2,0,0.2c0,0-0.1,0.1-0.2,0.1
		c-0.1,0-0.2-0.1-0.3-0.1c-0.1-0.3-0.3-0.5-0.4-0.8l-1.5-0.2c-0.1,0-0.2,0.1-0.2,0.2l-0.3,1.9c0,0.1,0.1,0.2,0.1,0.3c0,0,0,0,0,0
		l2.5,0.4c-0.1,0.7-0.3,1.5-0.5,2.2c0,0,0,0,0.1,0c0,0-0.1,0.1-0.1,0.1c0,0,0,0,0,0c-0.4,1.4-0.9,2.8-1.4,4.2L78.6,62
		c-0.1,0-0.2,0-0.3,0.1L77.4,64c0,0.1,0,0.2,0.1,0.3l1,0.5c0,0,0,0,0.1,0c0.2,0,0.3-0.1,0.4-0.3c0.2,0.2,0.2,0.3,0.1,0.5
		c0,0.1-0.1,0.1-0.1,0.1l0.9,0.4C78.9,67.3,77.7,69.2,76.3,70.9z M22.4,67.2c0,0,0.1-0.1,0.1-0.1c0,0,0.1,0.1,0.1,0.1
		c0,0-0.1,0.1-0.1,0.1C22.4,67.2,22.4,67.2,22.4,67.2z M18.3,58.7c0.2-0.2,0.3-0.2,0.6-0.1C18.7,58.7,18.5,58.8,18.3,58.7z
		 M18.7,40.3c0.1-0.1,0.1-0.2,0.2-0.2C18.9,40.3,18.9,40.3,18.7,40.3z M19.1,40.5c0,0.2,0.1,0.3,0.1,0.5C19,40.7,19,40.7,19.1,40.5z
		 M19.6,41.2c0.4,0.4,0.4,0.4,0,0.6C19.4,41.4,19.4,41.4,19.6,41.2z M28.7,25.8c0,0.1,0.1,0.2,0.1,0.4C28.6,26.1,28.5,26,28.7,25.8z
		 M29.1,26.6c-0.1,0-0.2,0-0.2,0c-0.2-0.1-0.1-0.2,0-0.3C29,26.4,29.1,26.5,29.1,26.6z M29.1,25.3c0.3-0.1,0.3-0.1,0.3,0.3
		C29.3,25.5,29.2,25.4,29.1,25.3z M68.8,23.8c0-0.1,0-0.2-0.1-0.2c0-0.1-0.1-0.1-0.1-0.3C69,23.5,69,23.5,68.8,23.8z M75.3,29.6
		C75.3,29.7,75.3,29.7,75.3,29.6c-0.1,0.1-0.2,0-0.2,0c0,0,0-0.1,0.1-0.2C75.3,29.5,75.3,29.6,75.3,29.6z M83,46
		c-0.1,0.1-0.2,0.2-0.3,0.4c0,0-0.1,0-0.1-0.1c0.1-0.1,0.1-0.3,0.2-0.4C82.9,45.9,82.9,45.9,83,46C83,46,83,46,83,46z M81.5,45.7
		c-0.2-0.1-0.2-0.3,0-0.4c0.1,0,0.1-0.1,0.2-0.1c0.2,0.3,0.2,0.3,0.1,0.6C81.7,45.8,81.6,45.8,81.5,45.7z M81.5,47.2
		c0-0.1-0.1-0.2-0.1-0.3c0.1,0,0.1-0.1,0.2-0.1C81.8,46.9,81.7,47.1,81.5,47.2z M81.7,56.2c-0.1,0-0.2,0-0.3,0c0-0.1,0-0.1,0-0.2
		C81.5,56,81.6,56.1,81.7,56.2z M80.2,71.1c0,0.2-0.1,0.4-0.1,0.6c-0.1-0.2-0.2-0.3-0.3-0.5c0-0.1,0-0.2,0-0.3c0.1,0,0.2,0,0.3,0
		C80.1,71,80.1,71,80.2,71.1z M79.6,74.2c0.1-0.2,0.1-0.5,0.5-0.5c0.3,0,0.2,0.3,0.4,0.5C80.2,74.2,79.9,74.2,79.6,74.2z"/>
	<path class="st0" d="M35.2,18.7c-0.1,0.1-0.1,0.1-0.2,0.2c0.1,0.1,0.2,0.3,0.3,0.4C35.5,19,35.5,19,35.2,18.7z"/>
	<path class="st0" d="M20.6,29.5C20.6,29.5,20.6,29.5,20.6,29.5c0-0.1-0.1-0.1-0.1-0.1c0,0.1-0.1,0.1-0.1,0.1
		C20.5,29.5,20.6,29.5,20.6,29.5z"/>
</g>
</svg>
